{
  "accessors": [
    {
      "name": "product-094c55c7-ed64-4ba5-a8e8-69028e5b2c15-body_1_0_positions",
      "componentType": 5126,
      "count": 24,
      "min": [
        -4.483181953430176,
        -1.2614176273345947,
        0
      ],
      "max": [
        -4.453181743621826,
        -1.2314176559448242,
        2.751312732696533
      ],
      "type": "VEC3",
      "bufferView": 0,
      "byteOffset": 0
    },
    {
      "name": "product-094c55c7-ed64-4ba5-a8e8-69028e5b2c15-body_1_0_normals",
      "componentType": 5126,
      "count": 24,
      "min": [
        -1,
        -1,
        -1
      ],
      "max": [
        1,
        1,
        1
      ],
      "type": "VEC3",
      "bufferView": 1,
      "byteOffset": 0
    },
    {
      "name": "product-094c55c7-ed64-4ba5-a8e8-69028e5b2c15-body_1_0_indices",
      "componentType": 5123,
      "count": 36,
      "min": [
        0
      ],
      "max": [
        23
      ],
      "type": "SCALAR",
      "bufferView": 2,
      "byteOffset": 0
    },
    {
      "name": "product-094c55c7-ed64-4ba5-a8e8-69028e5b2c14-body_1_0_positions",
      "componentType": 5126,
      "count": 24,
      "min": [
        -6.116515159606934,
        -1.2614176273345947,
        0
      ],
      "max": [
        -6.086514949798584,
        -1.2314176559448242,
        2.751312732696533
      ],
      "type": "VEC3",
      "bufferView": 0,
      "byteOffset": 288
    },
    {
      "name": "product-094c55c7-ed64-4ba5-a8e8-69028e5b2c14-body_1_0_normals",
      "componentType": 5126,
      "count": 24,
      "min": [
        -1,
        -1,
        -1
      ],
      "max": [
        1,
        1,
        1
      ],
      "type": "VEC3",
      "bufferView": 1,
      "byteOffset": 288
    },
    {
      "name": "product-094c55c7-ed64-4ba5-a8e8-69028e5b2c14-body_1_0_indices",
      "componentType": 5123,
      "count": 36,
      "min": [
        0
      ],
      "max": [
        23
      ],
      "type": "SCALAR",
      "bufferView": 2,
      "byteOffset": 72
    },
    {
      "name": "product-094c55c7-ed64-4ba5-a8e8-69028e5b2c17-body_1_0_positions",
      "componentType": 5126,
      "count": 24,
      "min": [
        -7.734848499298096,
        -1.2614176273345947,
        0
      ],
      "max": [
        -7.704848289489746,
        -1.2314176559448242,
        2.751312732696533
      ],
      "type": "VEC3",
      "bufferView": 0,
      "byteOffset": 576
    },
    {
      "name": "product-094c55c7-ed64-4ba5-a8e8-69028e5b2c17-body_1_0_normals",
      "componentType": 5126,
      "count": 24,
      "min": [
        -1,
        -1,
        -1
      ],
      "max": [
        1,
        1,
        1
      ],
      "type": "VEC3",
      "bufferView": 1,
      "byteOffset": 576
    },
    {
      "name": "product-094c55c7-ed64-4ba5-a8e8-69028e5b2c17-body_1_0_indices",
      "componentType": 5123,
      "count": 36,
      "min": [
        0
      ],
      "max": [
        23
      ],
      "type": "SCALAR",
      "bufferView": 2,
      "byteOffset": 144
    },
    {
      "name": "product-094c55c7-ed64-4ba5-a8e8-69028e5b2c16-body_1_0_positions",
      "componentType": 5126,
      "count": 24,
      "min": [
        -2.8648483753204346,
        -1.2614176273345947,
        0
      ],
      "max": [
        -2.834848403930664,
        -1.2314176559448242,
        2.751312732696533
      ],
      "type": "VEC3",
      "bufferView": 0,
      "byteOffset": 864
    },
    {
      "name": "product-094c55c7-ed64-4ba5-a8e8-69028e5b2c16-body_1_0_normals",
      "componentType": 5126,
      "count": 24,
      "min": [
        -1,
        -1,
        -1
      ],
      "max": [
        1,
        1,
        1
      ],
      "type": "VEC3",
      "bufferView": 1,
      "byteOffset": 864
    },
    {
      "name": "product-094c55c7-ed64-4ba5-a8e8-69028e5b2c16-body_1_0_indices",
      "componentType": 5123,
      "count": 36,
      "min": [
        0
      ],
      "max": [
        23
      ],
      "type": "SCALAR",
      "bufferView": 2,
      "byteOffset": 216
    },
    {
      "name": "product-094c55c7-ed64-4ba5-a8e8-69028e5b2c19-body_1_0_positions",
      "componentType": 5126,
      "count": 24,
      "min": [
        -4.453181743621826,
        -1.2614176273345947,
        0
      ],
      "max": [
        -2.8648483753204346,
        -1.2314176559448242,
        0.029999999329447746
      ],
      "type": "VEC3",
      "bufferView": 0,
      "byteOffset": 1152
    },
    {
      "name": "product-094c55c7-ed64-4ba5-a8e8-69028e5b2c19-body_1_0_normals",
      "componentType": 5126,
      "count": 24,
      "min": [
        -1,
        -1,
        -1
      ],
      "max": [
        1,
        1,
        1
      ],
      "type": "VEC3",
      "bufferView": 1,
      "byteOffset": 1152
    },
    {
      "name": "product-094c55c7-ed64-4ba5-a8e8-69028e5b2c19-body_1_0_indices",
      "componentType": 5123,
      "count": 36,
      "min": [
        0
      ],
      "max": [
        23
      ],
      "type": "SCALAR",
      "bufferView": 2,
      "byteOffset": 288
    },
    {
      "name": "product-094c55c7-ed64-4ba5-a8e8-69028e5b2c18-body_1_0_positions",
      "componentType": 5126,
      "count": 24,
      "min": [
        -6.086514949798584,
        -1.2614176273345947,
        0
      ],
      "max": [
        -4.483181953430176,
        -1.2314176559448242,
        0.029999999329447746
      ],
      "type": "VEC3",
      "bufferView": 0,
      "byteOffset": 1440
    },
    {
      "name": "product-094c55c7-ed64-4ba5-a8e8-69028e5b2c18-body_1_0_normals",
      "componentType": 5126,
      "count": 24,
      "min": [
        -1,
        -1,
        -1
      ],
      "max": [
        1,
        1,
        1
      ],
      "type": "VEC3",
      "bufferView": 1,
      "byteOffset": 1440
    },
    {
      "name": "product-094c55c7-ed64-4ba5-a8e8-69028e5b2c18-body_1_0_indices",
      "componentType": 5123,
      "count": 36,
      "min": [
        0
      ],
      "max": [
        23
      ],
      "type": "SCALAR",
      "bufferView": 2,
      "byteOffset": 360
    },
    {
      "name": "product-094c55c7-ed64-4ba5-a8e8-69028e5b2c1b-body_1_0_positions",
      "componentType": 5126,
      "count": 24,
      "min": [
        -7.704848289489746,
        -1.2614176273345947,
        0
      ],
      "max": [
        -6.116515159606934,
        -1.2314176559448242,
        0.029999999329447746
      ],
      "type": "VEC3",
      "bufferView": 0,
      "byteOffset": 1728
    },
    {
      "name": "product-094c55c7-ed64-4ba5-a8e8-69028e5b2c1b-body_1_0_normals",
      "componentType": 5126,
      "count": 24,
      "min": [
        -1,
        -1,
        -1
      ],
      "max": [
        1,
        1,
        1
      ],
      "type": "VEC3",
      "bufferView": 1,
      "byteOffset": 1728
    },
    {
      "name": "product-094c55c7-ed64-4ba5-a8e8-69028e5b2c1b-body_1_0_indices",
      "componentType": 5123,
      "count": 36,
      "min": [
        0
      ],
      "max": [
        23
      ],
      "type": "SCALAR",
      "bufferView": 2,
      "byteOffset": 432
    },
    {
      "name": "product-094c55c7-ed64-4ba5-a8e8-69028e5b2c1a-body_1_0_positions",
      "componentType": 5126,
      "count": 24,
      "min": [
        -6.086514949798584,
        -1.2614176273345947,
        2.7213127613067627
      ],
      "max": [
        -4.483181953430176,
        -1.2314176559448242,
        2.751312732696533
      ],
      "type": "VEC3",
      "bufferView": 0,
      "byteOffset": 2016
    },
    {
      "name": "product-094c55c7-ed64-4ba5-a8e8-69028e5b2c1a-body_1_0_normals",
      "componentType": 5126,
      "count": 24,
      "min": [
        -1,
        -1,
        -1
      ],
      "max": [
        1,
        1,
        1
      ],
      "type": "VEC3",
      "bufferView": 1,
      "byteOffset": 2016
    },
    {
      "name": "product-094c55c7-ed64-4ba5-a8e8-69028e5b2c1a-body_1_0_indices",
      "componentType": 5123,
      "count": 36,
      "min": [
        0
      ],
      "max": [
        23
      ],
      "type": "SCALAR",
      "bufferView": 2,
      "byteOffset": 504
    },
    {
      "name": "product-094c55c7-ed64-4ba5-a8e8-69028e5b2c1d-body_1_0_positions",
      "componentType": 5126,
      "count": 24,
      "min": [
        -7.704848289489746,
        -1.2614176273345947,
        2.7213127613067627
      ],
      "max": [
        -6.116515159606934,
        -1.2314176559448242,
        2.751312732696533
      ],
      "type": "VEC3",
      "bufferView": 0,
      "byteOffset": 2304
    },
    {
      "name": "product-094c55c7-ed64-4ba5-a8e8-69028e5b2c1d-body_1_0_normals",
      "componentType": 5126,
      "count": 24,
      "min": [
        -1,
        -1,
        -1
      ],
      "max": [
        1,
        1,
        1
      ],
      "type": "VEC3",
      "bufferView": 1,
      "byteOffset": 2304
    },
    {
      "name": "product-094c55c7-ed64-4ba5-a8e8-69028e5b2c1d-body_1_0_indices",
      "componentType": 5123,
      "count": 36,
      "min": [
        0
      ],
      "max": [
        23
      ],
      "type": "SCALAR",
      "bufferView": 2,
      "byteOffset": 576
    },
    {
      "name": "product-094c55c7-ed64-4ba5-a8e8-69028e5b2c1c-body_1_0_positions",
      "componentType": 5126,
      "count": 24,
      "min": [
        -4.453181743621826,
        -1.2614176273345947,
        2.7213127613067627
      ],
      "max": [
        -2.8648483753204346,
        -1.2314176559448242,
        2.751312732696533
      ],
      "type": "VEC3",
      "bufferView": 0,
      "byteOffset": 2592
    },
    {
      "name": "product-094c55c7-ed64-4ba5-a8e8-69028e5b2c1c-body_1_0_normals",
      "componentType": 5126,
      "count": 24,
      "min": [
        -1,
        -1,
        -1
      ],
      "max": [
        1,
        1,
        1
      ],
      "type": "VEC3",
      "bufferView": 1,
      "byteOffset": 2592
    },
    {
      "name": "product-094c55c7-ed64-4ba5-a8e8-69028e5b2c1c-body_1_0_indices",
      "componentType": 5123,
      "count": 36,
      "min": [
        0
      ],
      "max": [
        23
      ],
      "type": "SCALAR",
      "bufferView": 2,
      "byteOffset": 648
    },
    {
      "name": "product-e67aebc3-0bcc-49d1-b719-e4b4dff20fed-body_1_0_positions",
      "componentType": 5126,
      "count": 24,
      "min": [
        -4.468181610107422,
        -1.2219176292419434,
        0
      ],
      "max": [
        -2.834848403930664,
        -1.1969176530838013,
        2.751312732696533
      ],
      "type": "VEC3",
      "bufferView": 0,
      "byteOffset": 2880
    },
    {
      "name": "product-e67aebc3-0bcc-49d1-b719-e4b4dff20fed-body_1_0_normals",
      "componentType": 5126,
      "count": 24,
      "min": [
        -1,
        -1,
        -1
      ],
      "max": [
        1,
        1,
        1
      ],
      "type": "VEC3",
      "bufferView": 1,
      "byteOffset": 2880
    },
    {
      "name": "product-e67aebc3-0bcc-49d1-b719-e4b4dff20fed-body_1_0_indices",
      "componentType": 5123,
      "count": 36,
      "min": [
        0
      ],
      "max": [
        23
      ],
      "type": "SCALAR",
      "bufferView": 2,
      "byteOffset": 720
    },
    {
      "name": "product-e67aebc3-0bcc-49d1-b719-e4b4dff20fef-body_1_0_positions",
      "componentType": 5126,
      "count": 24,
      "min": [
        -6.101515293121338,
        -1.2219176292419434,
        0
      ],
      "max": [
        -4.468181610107422,
        -1.1969176530838013,
        2.751312732696533
      ],
      "type": "VEC3",
      "bufferView": 0,
      "byteOffset": 3168
    },
    {
      "name": "product-e67aebc3-0bcc-49d1-b719-e4b4dff20fef-body_1_0_normals",
      "componentType": 5126,
      "count": 24,
      "min": [
        -1,
        -1,
        -1
      ],
      "max": [
        1,
        1,
        1
      ],
      "type": "VEC3",
      "bufferView": 1,
      "byteOffset": 3168
    },
    {
      "name": "product-e67aebc3-0bcc-49d1-b719-e4b4dff20fef-body_1_0_indices",
      "componentType": 5123,
      "count": 36,
      "min": [
        0
      ],
      "max": [
        23
      ],
      "type": "SCALAR",
      "bufferView": 2,
      "byteOffset": 792
    },
    {
      "name": "product-e67aebc3-0bcc-49d1-b719-e4b4dff20fe2-body_1_0_positions",
      "componentType": 5126,
      "count": 24,
      "min": [
        -7.734848499298096,
        -1.2219176292419434,
        0
      ],
      "max": [
        -6.101515293121338,
        -1.1969176530838013,
        2.751312732696533
      ],
      "type": "VEC3",
      "bufferView": 0,
      "byteOffset": 3456
    },
    {
      "name": "product-e67aebc3-0bcc-49d1-b719-e4b4dff20fe2-body_1_0_normals",
      "componentType": 5126,
      "count": 24,
      "min": [
        -1,
        -1,
        -1
      ],
      "max": [
        1,
        1,
        1
      ],
      "type": "VEC3",
      "bufferView": 1,
      "byteOffset": 3456
    },
    {
      "name": "product-e67aebc3-0bcc-49d1-b719-e4b4dff20fe2-body_1_0_indices",
      "componentType": 5123,
      "count": 36,
      "min": [
        0
      ],
      "max": [
        23
      ],
      "type": "SCALAR",
      "bufferView": 2,
      "byteOffset": 864
    }
  ],
  "asset": {
    "generator": "obj2gltf",
    "version": "2.0"
  },
  "buffers": [
    {
      "name": "curtainWall0",
      "byteLength": 8424,
      "uri": "data:application/octet-stream;base64,"
    }
  ],
  "bufferViews": [
    {
      "name": "bufferView_0",
      "buffer": 0,
      "byteLength": 3744,
      "byteOffset": 0,
      "byteStride": 12,
      "target": 34962
    },
    {
      "name": "bufferView_1",
      "buffer": 0,
      "byteLength": 3744,
      "byteOffset": 3744,
      "byteStride": 12,
      "target": 34962
    },
    {
      "name": "bufferView_2",
      "buffer": 0,
      "byteLength": 936,
      "byteOffset": 7488,
      "target": 34963
    }
  ],
  "extensionsUsed": [
    "KHR_materials_common"
  ],
  "extensionsRequired": [
    "KHR_materials_common"
  ],
  "materials": [
    {
      "name": "surface-style-43-aluminium",
      "extensions": {
        "KHR_materials_common": {
          "technique": "PHONG",
          "transparent": false,
          "doubleSided": false,
          "values": {
            "ambient": [
              0,
              0,
              0,
              1
            ],
            "diffuse": [
              0.968627450980392,
              0.968627450980392,
              0.968627450980392,
              1
            ],
            "emission": [
              0,
              0,
              0,
              1
            ],
            "specular": [
              0.5,
              0.5,
              0.5,
              1
            ],
            "shininess": 128,
            "transparency": 1,
            "transparent": false,
            "doubleSided": false
          }
        }
      }
    },
    {
      "name": "surface-style-359-glass",
      "extensions": {
        "KHR_materials_common": {
          "technique": "PHONG",
          "transparent": true,
          "doubleSided": true,
          "values": {
            "ambient": [
              0,
              0,
              0,
              1
            ],
            "diffuse": [
              0,
              0.501960784313725,
              0.752941176470588,
              0.1
            ],
            "emission": [
              0,
              0,
              0,
              1
            ],
            "specular": [
              0.5,
              0.5,
              0.5,
              1
            ],
            "shininess": 12,
            "transparency": 1,
            "transparent": true,
            "doubleSided": true
          }
        }
      }
    }
  ],
  "meshes": [
    {
      "name": "product-094c55c7-ed64-4ba5-a8e8-69028e5b2c15-body_1",
      "primitives": [
        {
          "attributes": {
            "POSITION": 0,
            "NORMAL": 1
          },
          "indices": 2,
          "material": 0,
          "mode": 4
        }
      ]
    },
    {
      "name": "product-094c55c7-ed64-4ba5-a8e8-69028e5b2c14-body_1",
      "primitives": [
        {
          "attributes": {
            "POSITION": 3,
            "NORMAL": 4
          },
          "indices": 5,
          "material": 0,
          "mode": 4
        }
      ]
    },
    {
      "name": "product-094c55c7-ed64-4ba5-a8e8-69028e5b2c17-body_1",
      "primitives": [
        {
          "attributes": {
            "POSITION": 6,
            "NORMAL": 7
          },
          "indices": 8,
          "material": 0,
          "mode": 4
        }
      ]
    },
    {
      "name": "product-094c55c7-ed64-4ba5-a8e8-69028e5b2c16-body_1",
      "primitives": [
        {
          "attributes": {
            "POSITION": 9,
            "NORMAL": 10
          },
          "indices": 11,
          "material": 0,
          "mode": 4
        }
      ]
    },
    {
      "name": "product-094c55c7-ed64-4ba5-a8e8-69028e5b2c19-body_1",
      "primitives": [
        {
          "attributes": {
            "POSITION": 12,
            "NORMAL": 13
          },
          "indices": 14,
          "material": 0,
          "mode": 4
        }
      ]
    },
    {
      "name": "product-094c55c7-ed64-4ba5-a8e8-69028e5b2c18-body_1",
      "primitives": [
        {
          "attributes": {
            "POSITION": 15,
            "NORMAL": 16
          },
          "indices": 17,
          "material": 0,
          "mode": 4
        }
      ]
    },
    {
      "name": "product-094c55c7-ed64-4ba5-a8e8-69028e5b2c1b-body_1",
      "primitives": [
        {
          "attributes": {
            "POSITION": 18,
            "NORMAL": 19
          },
          "indices": 20,
          "material": 0,
          "mode": 4
        }
      ]
    },
    {
      "name": "product-094c55c7-ed64-4ba5-a8e8-69028e5b2c1a-body_1",
      "primitives": [
        {
          "attributes": {
            "POSITION": 21,
            "NORMAL": 22
          },
          "indices": 23,
          "material": 0,
          "mode": 4
        }
      ]
    },
    {
      "name": "product-094c55c7-ed64-4ba5-a8e8-69028e5b2c1d-body_1",
      "primitives": [
        {
          "attributes": {
            "POSITION": 24,
            "NORMAL": 25
          },
          "indices": 26,
          "material": 0,
          "mode": 4
        }
      ]
    },
    {
      "name": "product-094c55c7-ed64-4ba5-a8e8-69028e5b2c1c-body_1",
      "primitives": [
        {
          "attributes": {
            "POSITION": 27,
            "NORMAL": 28
          },
          "indices": 29,
          "material": 0,
          "mode": 4
        }
      ]
    },
    {
      "name": "product-e67aebc3-0bcc-49d1-b719-e4b4dff20fed-body_1",
      "primitives": [
        {
          "attributes": {
            "POSITION": 30,
            "NORMAL": 31
          },
          "indices": 32,
          "material": 1,
          "mode": 4
        }
      ]
    },
    {
      "name": "product-e67aebc3-0bcc-49d1-b719-e4b4dff20fef-body_1",
      "primitives": [
        {
          "attributes": {
            "POSITION": 33,
            "NORMAL": 34
          },
          "indices": 35,
          "material": 1,
          "mode": 4
        }
      ]
    },
    {
      "name": "product-e67aebc3-0bcc-49d1-b719-e4b4dff20fe2-body_1",
      "primitives": [
        {
          "attributes": {
            "POSITION": 36,
            "NORMAL": 37
          },
          "indices": 38,
          "material": 1,
          "mode": 4
        }
      ]
    }
  ],
  "nodes": [
    {
      "name": "product-094c55c7-ed64-4ba5-a8e8-69028e5b2c15-body",
      "mesh": 0
    },
    {
      "name": "product-094c55c7-ed64-4ba5-a8e8-69028e5b2c14-body",
      "mesh": 1
    },
    {
      "name": "product-094c55c7-ed64-4ba5-a8e8-69028e5b2c17-body",
      "mesh": 2
    },
    {
      "name": "product-094c55c7-ed64-4ba5-a8e8-69028e5b2c16-body",
      "mesh": 3
    },
    {
      "name": "product-094c55c7-ed64-4ba5-a8e8-69028e5b2c19-body",
      "mesh": 4
    },
    {
      "name": "product-094c55c7-ed64-4ba5-a8e8-69028e5b2c18-body",
      "mesh": 5
    },
    {
      "name": "product-094c55c7-ed64-4ba5-a8e8-69028e5b2c1b-body",
      "mesh": 6
    },
    {
      "name": "product-094c55c7-ed64-4ba5-a8e8-69028e5b2c1a-body",
      "mesh": 7
    },
    {
      "name": "product-094c55c7-ed64-4ba5-a8e8-69028e5b2c1d-body",
      "mesh": 8
    },
    {
      "name": "product-094c55c7-ed64-4ba5-a8e8-69028e5b2c1c-body",
      "mesh": 9
    },
    {
      "name": "product-e67aebc3-0bcc-49d1-b719-e4b4dff20fed-body",
      "mesh": 10
    },
    {
      "name": "product-e67aebc3-0bcc-49d1-b719-e4b4dff20fef-body",
      "mesh": 11
    },
    {
      "name": "product-e67aebc3-0bcc-49d1-b719-e4b4dff20fe2-body",
      "mesh": 12
    }
  ],
  "scene": 0,
  "scenes": [
    {
      "nodes": [
        0,
        1,
        2,
        3,
        4,
        5,
        6,
        7,
        8,
        9,
        10,
        11,
        12
      ]
    }
  ]
}
