{
  "accessors": [
    {
      "name": "product-094c55c7-ed64-4ba5-a8e8-69028e5b2c1e-body_1_0_positions",
      "componentType": 5126,
      "count": 44,
      "min": [
        -7.749848365783691,
        0.6235823631286621,
        0
      ],
      "max": [
        -7.7198486328125,
        0.6535823345184326,
        3.2884249687194824
      ],
      "type": "VEC3",
      "bufferView": 0,
      "byteOffset": 0
    },
    {
      "name": "product-094c55c7-ed64-4ba5-a8e8-69028e5b2c1e-body_1_0_normals",
      "componentType": 5126,
      "count": 44,
      "min": [
        -1,
        -1,
        -1
      ],
      "max": [
        1,
        1,
        0.9929866194725037
      ],
      "type": "VEC3",
      "bufferView": 1,
      "byteOffset": 0
    },
    {
      "name": "product-094c55c7-ed64-4ba5-a8e8-69028e5b2c1e-body_1_0_indices",
      "componentType": 5123,
      "count": 84,
      "min": [
        0
      ],
      "max": [
        43
      ],
      "type": "SCALAR",
      "bufferView": 2,
      "byteOffset": 0
    },
    {
      "name": "product-094c55c7-ed64-4ba5-a8e8-69028e5b2c01-body_1_0_positions",
      "componentType": 5126,
      "count": 44,
      "min": [
        -7.749848365783691,
        2.508582353591919,
        0
      ],
      "max": [
        -7.7198486328125,
        2.5385823249816895,
        3.2075624465942383
      ],
      "type": "VEC3",
      "bufferView": 0,
      "byteOffset": 528
    },
    {
      "name": "product-094c55c7-ed64-4ba5-a8e8-69028e5b2c01-body_1_0_normals",
      "componentType": 5126,
      "count": 44,
      "min": [
        -1,
        -1,
        -1
      ],
      "max": [
        1,
        1,
        0.9788520336151123
      ],
      "type": "VEC3",
      "bufferView": 1,
      "byteOffset": 528
    },
    {
      "name": "product-094c55c7-ed64-4ba5-a8e8-69028e5b2c01-body_1_0_indices",
      "componentType": 5123,
      "count": 84,
      "min": [
        0
      ],
      "max": [
        43
      ],
      "type": "SCALAR",
      "bufferView": 2,
      "byteOffset": 168
    },
    {
      "name": "product-094c55c7-ed64-4ba5-a8e8-69028e5b2c00-body_1_0_positions",
      "componentType": 5126,
      "count": 24,
      "min": [
        -7.749848365783691,
        4.37858247756958,
        9.992007221626409e-15
      ],
      "max": [
        -7.7198486328125,
        4.4085822105407715,
        2.4737026691436768
      ],
      "type": "VEC3",
      "bufferView": 0,
      "byteOffset": 1056
    },
    {
      "name": "product-094c55c7-ed64-4ba5-a8e8-69028e5b2c00-body_1_0_normals",
      "componentType": 5126,
      "count": 24,
      "min": [
        -1,
        -1,
        -1
      ],
      "max": [
        1,
        1,
        0.8751135468482971
      ],
      "type": "VEC3",
      "bufferView": 1,
      "byteOffset": 1056
    },
    {
      "name": "product-094c55c7-ed64-4ba5-a8e8-69028e5b2c00-body_1_0_indices",
      "componentType": 5123,
      "count": 36,
      "min": [
        0
      ],
      "max": [
        23
      ],
      "type": "SCALAR",
      "bufferView": 2,
      "byteOffset": 336
    },
    {
      "name": "product-094c55c7-ed64-4ba5-a8e8-69028e5b2c03-body_1_0_positions",
      "componentType": 5126,
      "count": 24,
      "min": [
        -7.749848365783691,
        -1.2464176416397095,
        0
      ],
      "max": [
        -7.7198486328125,
        -1.216417670249939,
        2.751312732696533
      ],
      "type": "VEC3",
      "bufferView": 0,
      "byteOffset": 1344
    },
    {
      "name": "product-094c55c7-ed64-4ba5-a8e8-69028e5b2c03-body_1_0_normals",
      "componentType": 5126,
      "count": 24,
      "min": [
        -1,
        -1,
        -1
      ],
      "max": [
        1,
        1,
        0.8503335118293762
      ],
      "type": "VEC3",
      "bufferView": 1,
      "byteOffset": 1344
    },
    {
      "name": "product-094c55c7-ed64-4ba5-a8e8-69028e5b2c03-body_1_0_indices",
      "componentType": 5123,
      "count": 36,
      "min": [
        0
      ],
      "max": [
        23
      ],
      "type": "SCALAR",
      "bufferView": 2,
      "byteOffset": 408
    },
    {
      "name": "product-094c55c7-ed64-4ba5-a8e8-69028e5b2c05-body_1_0_positions",
      "componentType": 5126,
      "count": 24,
      "min": [
        -7.749848365783691,
        -1.216417670249939,
        0
      ],
      "max": [
        -7.7198486328125,
        0.6235823631286621,
        0.029999999329447746
      ],
      "type": "VEC3",
      "bufferView": 0,
      "byteOffset": 1632
    },
    {
      "name": "product-094c55c7-ed64-4ba5-a8e8-69028e5b2c05-body_1_0_normals",
      "componentType": 5126,
      "count": 24,
      "min": [
        -1,
        -1,
        -1
      ],
      "max": [
        1,
        1,
        1
      ],
      "type": "VEC3",
      "bufferView": 1,
      "byteOffset": 1632
    },
    {
      "name": "product-094c55c7-ed64-4ba5-a8e8-69028e5b2c05-body_1_0_indices",
      "componentType": 5123,
      "count": 36,
      "min": [
        0
      ],
      "max": [
        23
      ],
      "type": "SCALAR",
      "bufferView": 2,
      "byteOffset": 480
    },
    {
      "name": "product-094c55c7-ed64-4ba5-a8e8-69028e5b2c04-body_1_0_positions",
      "componentType": 5126,
      "count": 24,
      "min": [
        -7.749848365783691,
        0.6535823345184326,
        0
      ],
      "max": [
        -7.7198486328125,
        2.508582353591919,
        0.029999999329447746
      ],
      "type": "VEC3",
      "bufferView": 0,
      "byteOffset": 1920
    },
    {
      "name": "product-094c55c7-ed64-4ba5-a8e8-69028e5b2c04-body_1_0_normals",
      "componentType": 5126,
      "count": 24,
      "min": [
        -1,
        -1,
        -1
      ],
      "max": [
        1,
        1,
        1
      ],
      "type": "VEC3",
      "bufferView": 1,
      "byteOffset": 1920
    },
    {
      "name": "product-094c55c7-ed64-4ba5-a8e8-69028e5b2c04-body_1_0_indices",
      "componentType": 5123,
      "count": 36,
      "min": [
        0
      ],
      "max": [
        23
      ],
      "type": "SCALAR",
      "bufferView": 2,
      "byteOffset": 552
    },
    {
      "name": "product-094c55c7-ed64-4ba5-a8e8-69028e5b2c07-body_1_0_positions",
      "componentType": 5126,
      "count": 24,
      "min": [
        -7.749848365783691,
        2.5385823249816895,
        0
      ],
      "max": [
        -7.7198486328125,
        4.37858247756958,
        0.029999999329447746
      ],
      "type": "VEC3",
      "bufferView": 0,
      "byteOffset": 2208
    },
    {
      "name": "product-094c55c7-ed64-4ba5-a8e8-69028e5b2c07-body_1_0_normals",
      "componentType": 5126,
      "count": 24,
      "min": [
        -1,
        -1,
        -1
      ],
      "max": [
        1,
        1,
        1
      ],
      "type": "VEC3",
      "bufferView": 1,
      "byteOffset": 2208
    },
    {
      "name": "product-094c55c7-ed64-4ba5-a8e8-69028e5b2c07-body_1_0_indices",
      "componentType": 5123,
      "count": 36,
      "min": [
        0
      ],
      "max": [
        23
      ],
      "type": "SCALAR",
      "bufferView": 2,
      "byteOffset": 624
    },
    {
      "name": "product-094c55c7-ed64-4ba5-a8e8-69028e5b2c09-body_1_0_positions",
      "componentType": 5126,
      "count": 208,
      "min": [
        -7.749848365783691,
        0.6385823488235474,
        3.2057137489318848
      ],
      "max": [
        -7.7198486328125,
        2.5235822200775146,
        3.358759641647339
      ],
      "type": "VEC3",
      "bufferView": 0,
      "byteOffset": 2496
    },
    {
      "name": "product-094c55c7-ed64-4ba5-a8e8-69028e5b2c09-body_1_0_normals",
      "componentType": 5126,
      "count": 208,
      "min": [
        -1,
        -0.9927488565444946,
        -0.9999971389770508
      ],
      "max": [
        1,
        0.9786108136177063,
        0.9999971389770508
      ],
      "type": "VEC3",
      "bufferView": 1,
      "byteOffset": 2496
    },
    {
      "name": "product-094c55c7-ed64-4ba5-a8e8-69028e5b2c09-body_1_0_indices",
      "componentType": 5123,
      "count": 588,
      "min": [
        0
      ],
      "max": [
        207
      ],
      "type": "SCALAR",
      "bufferView": 2,
      "byteOffset": 696
    },
    {
      "name": "product-094c55c7-ed64-4ba5-a8e8-69028e5b2c08-body_1_0_positions",
      "componentType": 5126,
      "count": 224,
      "min": [
        -7.749848365783691,
        2.5174107551574707,
        2.4571001529693604
      ],
      "max": [
        -7.7198486328125,
        4.4085822105407715,
        3.235072135925293
      ],
      "type": "VEC3",
      "bufferView": 0,
      "byteOffset": 4992
    },
    {
      "name": "product-094c55c7-ed64-4ba5-a8e8-69028e5b2c08-body_1_0_normals",
      "componentType": 5126,
      "count": 224,
      "min": [
        -1,
        -0.9786108136177063,
        -0.9786108136177063
      ],
      "max": [
        1,
        0.5316474437713623,
        0.9786108136177063
      ],
      "type": "VEC3",
      "bufferView": 1,
      "byteOffset": 4992
    },
    {
      "name": "product-094c55c7-ed64-4ba5-a8e8-69028e5b2c08-body_1_0_indices",
      "componentType": 5123,
      "count": 636,
      "min": [
        0
      ],
      "max": [
        223
      ],
      "type": "SCALAR",
      "bufferView": 2,
      "byteOffset": 1872
    },
    {
      "name": "product-094c55c7-ed64-4ba5-a8e8-69028e5b2c0b-body_1_0_positions",
      "componentType": 5126,
      "count": 216,
      "min": [
        -7.749848365783691,
        -1.2464176416397095,
        2.7327280044555664
      ],
      "max": [
        -7.7198486328125,
        0.642188549041748,
        3.3168392181396484
      ],
      "type": "VEC3",
      "bufferView": 0,
      "byteOffset": 7680
    },
    {
      "name": "product-094c55c7-ed64-4ba5-a8e8-69028e5b2c0b-body_1_0_normals",
      "componentType": 5126,
      "count": 216,
      "min": [
        -1,
        -0.5262441635131836,
        -0.9927488565444946
      ],
      "max": [
        1,
        0.9927488565444946,
        0.9927488565444946
      ],
      "type": "VEC3",
      "bufferView": 1,
      "byteOffset": 7680
    },
    {
      "name": "product-094c55c7-ed64-4ba5-a8e8-69028e5b2c0b-body_1_0_indices",
      "componentType": 5123,
      "count": 612,
      "min": [
        0
      ],
      "max": [
        215
      ],
      "type": "SCALAR",
      "bufferView": 2,
      "byteOffset": 3144
    },
    {
      "name": "product-e67aebc3-0bcc-49d1-b719-e4b4dff20f83-body_1_0_positions",
      "componentType": 5126,
      "count": 124,
      "min": [
        -7.710348606109619,
        -1.2464176416397095,
        0
      ],
      "max": [
        -7.6853485107421875,
        0.6385823488235474,
        3.3168392181396484
      ],
      "type": "VEC3",
      "bufferView": 0,
      "byteOffset": 10272
    },
    {
      "name": "product-e67aebc3-0bcc-49d1-b719-e4b4dff20f83-body_1_0_normals",
      "componentType": 5126,
      "count": 124,
      "min": [
        -1,
        -1,
        -1
      ],
      "max": [
        1,
        1,
        0.9927488565444946
      ],
      "type": "VEC3",
      "bufferView": 1,
      "byteOffset": 10272
    },
    {
      "name": "product-e67aebc3-0bcc-49d1-b719-e4b4dff20f83-body_1_0_indices",
      "componentType": 5123,
      "count": 336,
      "min": [
        0
      ],
      "max": [
        123
      ],
      "type": "SCALAR",
      "bufferView": 2,
      "byteOffset": 4368
    },
    {
      "name": "product-e67aebc3-0bcc-49d1-b719-e4b4dff20f85-body_1_0_positions",
      "componentType": 5126,
      "count": 116,
      "min": [
        -7.710348606109619,
        0.6385823488235474,
        0
      ],
      "max": [
        -7.6853485107421875,
        2.5235822200775146,
        3.358759641647339
      ],
      "type": "VEC3",
      "bufferView": 0,
      "byteOffset": 11760
    },
    {
      "name": "product-e67aebc3-0bcc-49d1-b719-e4b4dff20f85-body_1_0_normals",
      "componentType": 5126,
      "count": 116,
      "min": [
        -1,
        -1,
        -1
      ],
      "max": [
        1,
        1,
        0.9999971389770508
      ],
      "type": "VEC3",
      "bufferView": 1,
      "byteOffset": 11760
    },
    {
      "name": "product-e67aebc3-0bcc-49d1-b719-e4b4dff20f85-body_1_0_indices",
      "componentType": 5123,
      "count": 312,
      "min": [
        0
      ],
      "max": [
        115
      ],
      "type": "SCALAR",
      "bufferView": 2,
      "byteOffset": 5040
    },
    {
      "name": "product-e67aebc3-0bcc-49d1-b719-e4b4dff20f98-body_1_0_positions",
      "componentType": 5126,
      "count": 124,
      "min": [
        -7.710348606109619,
        2.5235822200775146,
        -9.992007221626409e-15
      ],
      "max": [
        -7.6853485107421875,
        4.4085822105407715,
        3.235072135925293
      ],
      "type": "VEC3",
      "bufferView": 0,
      "byteOffset": 13152
    },
    {
      "name": "product-e67aebc3-0bcc-49d1-b719-e4b4dff20f98-body_1_0_normals",
      "componentType": 5126,
      "count": 124,
      "min": [
        -1,
        -1,
        -1
      ],
      "max": [
        1,
        1,
        0.9786108136177063
      ],
      "type": "VEC3",
      "bufferView": 1,
      "byteOffset": 13152
    },
    {
      "name": "product-e67aebc3-0bcc-49d1-b719-e4b4dff20f98-body_1_0_indices",
      "componentType": 5123,
      "count": 336,
      "min": [
        0
      ],
      "max": [
        123
      ],
      "type": "SCALAR",
      "bufferView": 2,
      "byteOffset": 5664
    }
  ],
  "asset": {
    "generator": "obj2gltf",
    "version": "2.0"
  },
  "buffers": [
    {
      "name": "curtainWall1",
      "byteLength": 35616,
      "uri": "data:application/octet-stream;base64,"
    }
  ],
  "bufferViews": [
    {
      "name": "bufferView_0",
      "buffer": 0,
      "byteLength": 14640,
      "byteOffset": 0,
      "byteStride": 12,
      "target": 34962
    },
    {
      "name": "bufferView_1",
      "buffer": 0,
      "byteLength": 14640,
      "byteOffset": 14640,
      "byteStride": 12,
      "target": 34962
    },
    {
      "name": "bufferView_2",
      "buffer": 0,
      "byteLength": 6336,
      "byteOffset": 29280,
      "target": 34963
    }
  ],
  "extensionsUsed": [
    "KHR_materials_common"
  ],
  "extensionsRequired": [
    "KHR_materials_common"
  ],
  "materials": [
    {
      "name": "surface-style-67-aluminium",
      "extensions": {
        "KHR_materials_common": {
          "technique": "PHONG",
          "transparent": false,
          "doubleSided": false,
          "values": {
            "ambient": [
              0,
              0,
              0,
              1
            ],
            "diffuse": [
              0.968627450980392,
              0.968627450980392,
              0.968627450980392,
              1
            ],
            "emission": [
              0,
              0,
              0,
              1
            ],
            "specular": [
              0.5,
              0.5,
              0.5,
              1
            ],
            "shininess": 128,
            "transparency": 1,
            "transparent": false,
            "doubleSided": false
          }
        }
      }
    },
    {
      "name": "surface-style-494-glass",
      "extensions": {
        "KHR_materials_common": {
          "technique": "PHONG",
          "transparent": true,
          "doubleSided": true,
          "values": {
            "ambient": [
              0,
              0,
              0,
              1
            ],
            "diffuse": [
              0,
              0.501960784313725,
              0.752941176470588,
              0.1
            ],
            "emission": [
              0,
              0,
              0,
              1
            ],
            "specular": [
              0.5,
              0.5,
              0.5,
              1
            ],
            "shininess": 12,
            "transparency": 1,
            "transparent": true,
            "doubleSided": true
          }
        }
      }
    }
  ],
  "meshes": [
    {
      "name": "product-094c55c7-ed64-4ba5-a8e8-69028e5b2c1e-body_1",
      "primitives": [
        {
          "attributes": {
            "POSITION": 0,
            "NORMAL": 1
          },
          "indices": 2,
          "material": 0,
          "mode": 4
        }
      ]
    },
    {
      "name": "product-094c55c7-ed64-4ba5-a8e8-69028e5b2c01-body_1",
      "primitives": [
        {
          "attributes": {
            "POSITION": 3,
            "NORMAL": 4
          },
          "indices": 5,
          "material": 0,
          "mode": 4
        }
      ]
    },
    {
      "name": "product-094c55c7-ed64-4ba5-a8e8-69028e5b2c00-body_1",
      "primitives": [
        {
          "attributes": {
            "POSITION": 6,
            "NORMAL": 7
          },
          "indices": 8,
          "material": 0,
          "mode": 4
        }
      ]
    },
    {
      "name": "product-094c55c7-ed64-4ba5-a8e8-69028e5b2c03-body_1",
      "primitives": [
        {
          "attributes": {
            "POSITION": 9,
            "NORMAL": 10
          },
          "indices": 11,
          "material": 0,
          "mode": 4
        }
      ]
    },
    {
      "name": "product-094c55c7-ed64-4ba5-a8e8-69028e5b2c05-body_1",
      "primitives": [
        {
          "attributes": {
            "POSITION": 12,
            "NORMAL": 13
          },
          "indices": 14,
          "material": 0,
          "mode": 4
        }
      ]
    },
    {
      "name": "product-094c55c7-ed64-4ba5-a8e8-69028e5b2c04-body_1",
      "primitives": [
        {
          "attributes": {
            "POSITION": 15,
            "NORMAL": 16
          },
          "indices": 17,
          "material": 0,
          "mode": 4
        }
      ]
    },
    {
      "name": "product-094c55c7-ed64-4ba5-a8e8-69028e5b2c07-body_1",
      "primitives": [
        {
          "attributes": {
            "POSITION": 18,
            "NORMAL": 19
          },
          "indices": 20,
          "material": 0,
          "mode": 4
        }
      ]
    },
    {
      "name": "product-094c55c7-ed64-4ba5-a8e8-69028e5b2c09-body_1",
      "primitives": [
        {
          "attributes": {
            "POSITION": 21,
            "NORMAL": 22
          },
          "indices": 23,
          "material": 0,
          "mode": 4
        }
      ]
    },
    {
      "name": "product-094c55c7-ed64-4ba5-a8e8-69028e5b2c08-body_1",
      "primitives": [
        {
          "attributes": {
            "POSITION": 24,
            "NORMAL": 25
          },
          "indices": 26,
          "material": 0,
          "mode": 4
        }
      ]
    },
    {
      "name": "product-094c55c7-ed64-4ba5-a8e8-69028e5b2c0b-body_1",
      "primitives": [
        {
          "attributes": {
            "POSITION": 27,
            "NORMAL": 28
          },
          "indices": 29,
          "material": 0,
          "mode": 4
        }
      ]
    },
    {
      "name": "product-e67aebc3-0bcc-49d1-b719-e4b4dff20f83-body_1",
      "primitives": [
        {
          "attributes": {
            "POSITION": 30,
            "NORMAL": 31
          },
          "indices": 32,
          "material": 1,
          "mode": 4
        }
      ]
    },
    {
      "name": "product-e67aebc3-0bcc-49d1-b719-e4b4dff20f85-body_1",
      "primitives": [
        {
          "attributes": {
            "POSITION": 33,
            "NORMAL": 34
          },
          "indices": 35,
          "material": 1,
          "mode": 4
        }
      ]
    },
    {
      "name": "product-e67aebc3-0bcc-49d1-b719-e4b4dff20f98-body_1",
      "primitives": [
        {
          "attributes": {
            "POSITION": 36,
            "NORMAL": 37
          },
          "indices": 38,
          "material": 1,
          "mode": 4
        }
      ]
    }
  ],
  "nodes": [
    {
      "name": "product-094c55c7-ed64-4ba5-a8e8-69028e5b2c1e-body",
      "mesh": 0
    },
    {
      "name": "product-094c55c7-ed64-4ba5-a8e8-69028e5b2c01-body",
      "mesh": 1
    },
    {
      "name": "product-094c55c7-ed64-4ba5-a8e8-69028e5b2c00-body",
      "mesh": 2
    },
    {
      "name": "product-094c55c7-ed64-4ba5-a8e8-69028e5b2c03-body",
      "mesh": 3
    },
    {
      "name": "product-094c55c7-ed64-4ba5-a8e8-69028e5b2c05-body",
      "mesh": 4
    },
    {
      "name": "product-094c55c7-ed64-4ba5-a8e8-69028e5b2c04-body",
      "mesh": 5
    },
    {
      "name": "product-094c55c7-ed64-4ba5-a8e8-69028e5b2c07-body",
      "mesh": 6
    },
    {
      "name": "product-094c55c7-ed64-4ba5-a8e8-69028e5b2c09-body",
      "mesh": 7
    },
    {
      "name": "product-094c55c7-ed64-4ba5-a8e8-69028e5b2c08-body",
      "mesh": 8
    },
    {
      "name": "product-094c55c7-ed64-4ba5-a8e8-69028e5b2c0b-body",
      "mesh": 9
    },
    {
      "name": "product-e67aebc3-0bcc-49d1-b719-e4b4dff20f83-body",
      "mesh": 10
    },
    {
      "name": "product-e67aebc3-0bcc-49d1-b719-e4b4dff20f85-body",
      "mesh": 11
    },
    {
      "name": "product-e67aebc3-0bcc-49d1-b719-e4b4dff20f98-body",
      "mesh": 12
    }
  ],
  "scene": 0,
  "scenes": [
    {
      "nodes": [
        0,
        1,
        2,
        3,
        4,
        5,
        6,
        7,
        8,
        9,
        10,
        11,
        12
      ]
    }
  ]
}
