{
  "accessors": [
    {
      "name": "product-e67aebc3-0bcc-49d1-b719-e4b4dff208b3-body_1_0_positions",
      "componentType": 5126,
      "count": 3056,
      "min": [
        3.7874014377593994,
        -1.2704176902770996,
        1.0199999809265137
      ],
      "max": [
        4.000401496887207,
        -1.116417646408081,
        1.0800000429153442
      ],
      "type": "VEC3",
      "bufferView": 0,
      "byteOffset": 0
    },
    {
      "name": "product-e67aebc3-0bcc-49d1-b719-e4b4dff208b3-body_1_0_normals",
      "componentType": 5126,
      "count": 3056,
      "min": [
        -0.9914448857307434,
        -1,
        -1
      ],
      "max": [
        0.9914448857307434,
        1,
        1
      ],
      "type": "VEC3",
      "bufferView": 1,
      "byteOffset": 0
    },
    {
      "name": "product-e67aebc3-0bcc-49d1-b719-e4b4dff208b3-body_1_0_indices",
      "componentType": 5123,
      "count": 4128,
      "min": [
        0
      ],
      "max": [
        3055
      ],
      "type": "SCALAR",
      "bufferView": 2,
      "byteOffset": 0
    },
    {
      "name": "product-e67aebc3-0bcc-49d1-b719-e4b4dff208b3-body_1_1_positions",
      "componentType": 5126,
      "count": 126,
      "min": [
        2.9639015197753906,
        -1.2154176235198975,
        0
      ],
      "max": [
        4.823901653289795,
        -1.0714176893234253,
        2.109999895095825
      ],
      "type": "VEC3",
      "bufferView": 0,
      "byteOffset": 36672
    },
    {
      "name": "product-e67aebc3-0bcc-49d1-b719-e4b4dff208b3-body_1_1_normals",
      "componentType": 5126,
      "count": 126,
      "min": [
        -1,
        -1,
        -1
      ],
      "max": [
        1,
        1,
        1
      ],
      "type": "VEC3",
      "bufferView": 1,
      "byteOffset": 36672
    },
    {
      "name": "product-e67aebc3-0bcc-49d1-b719-e4b4dff208b3-body_1_1_indices",
      "componentType": 5123,
      "count": 228,
      "min": [
        0
      ],
      "max": [
        125
      ],
      "type": "SCALAR",
      "bufferView": 2,
      "byteOffset": 8256
    },
    {
      "name": "product-e67aebc3-0bcc-49d1-b719-e4b4dff208b3-body_1_2_positions",
      "componentType": 5126,
      "count": 48,
      "min": [
        3.0404014587402344,
        -1.2154176235198975,
        0.05849999934434891
      ],
      "max": [
        4.747401714324951,
        -1.1714177131652832,
        2.058500051498413
      ],
      "type": "VEC3",
      "bufferView": 0,
      "byteOffset": 38184
    },
    {
      "name": "product-e67aebc3-0bcc-49d1-b719-e4b4dff208b3-body_1_2_normals",
      "componentType": 5126,
      "count": 48,
      "min": [
        -1,
        -1,
        -1
      ],
      "max": [
        1,
        1,
        1
      ],
      "type": "VEC3",
      "bufferView": 1,
      "byteOffset": 38184
    },
    {
      "name": "product-e67aebc3-0bcc-49d1-b719-e4b4dff208b3-body_1_2_indices",
      "componentType": 5123,
      "count": 72,
      "min": [
        0
      ],
      "max": [
        47
      ],
      "type": "SCALAR",
      "bufferView": 2,
      "byteOffset": 8712
    }
  ],
  "asset": {
    "generator": "obj2gltf",
    "version": "2.0"
  },
  "buffers": [
    {
      "name": "door0",
      "byteLength": 86376,
      "uri": "data:application/octet-stream;base64,"
    }
  ],
  "bufferViews": [
    {
      "name": "bufferView_0",
      "buffer": 0,
      "byteLength": 38760,
      "byteOffset": 0,
      "byteStride": 12,
      "target": 34962
    },
    {
      "name": "bufferView_1",
      "buffer": 0,
      "byteLength": 38760,
      "byteOffset": 38760,
      "byteStride": 12,
      "target": 34962
    },
    {
      "name": "bufferView_2",
      "buffer": 0,
      "byteLength": 8856,
      "byteOffset": 77520,
      "target": 34963
    }
  ],
  "extensionsUsed": [
    "KHR_materials_common"
  ],
  "extensionsRequired": [
    "KHR_materials_common"
  ],
  "materials": [
    {
      "name": "surface-style-442-door---handle",
      "extensions": {
        "KHR_materials_common": {
          "technique": "PHONG",
          "transparent": false,
          "doubleSided": false,
          "values": {
            "ambient": [
              0,
              0,
              0,
              1
            ],
            "diffuse": [
              0,
              0,
              0,
              1
            ],
            "emission": [
              0,
              0,
              0,
              1
            ],
            "specular": [
              0.5,
              0.5,
              0.5,
              1
            ],
            "shininess": 64,
            "transparency": 1,
            "transparent": false,
            "doubleSided": false
          }
        }
      }
    },
    {
      "name": "surface-style-242-door---frame/mullion",
      "extensions": {
        "KHR_materials_common": {
          "technique": "PHONG",
          "transparent": false,
          "doubleSided": false,
          "values": {
            "ambient": [
              0,
              0,
              0,
              1
            ],
            "diffuse": [
              0.831372549019608,
              0.701960784313725,
              0.443137254901961,
              1
            ],
            "emission": [
              0,
              0,
              0,
              1
            ],
            "specular": [
              0.5,
              0.5,
              0.5,
              1
            ],
            "shininess": 128,
            "transparency": 1,
            "transparent": false,
            "doubleSided": false
          }
        }
      }
    },
    {
      "name": "surface-style-157-door---panel",
      "extensions": {
        "KHR_materials_common": {
          "technique": "PHONG",
          "transparent": false,
          "doubleSided": false,
          "values": {
            "ambient": [
              0,
              0,
              0,
              1
            ],
            "diffuse": [
              0.823529411764706,
              0.623529411764706,
              0.372549019607843,
              1
            ],
            "emission": [
              0,
              0,
              0,
              1
            ],
            "specular": [
              0.5,
              0.5,
              0.5,
              1
            ],
            "shininess": 128,
            "transparency": 1,
            "transparent": false,
            "doubleSided": false
          }
        }
      }
    }
  ],
  "meshes": [
    {
      "name": "product-e67aebc3-0bcc-49d1-b719-e4b4dff208b3-body_1",
      "primitives": [
        {
          "attributes": {
            "POSITION": 0,
            "NORMAL": 1
          },
          "indices": 2,
          "material": 0,
          "mode": 4
        },
        {
          "attributes": {
            "POSITION": 3,
            "NORMAL": 4
          },
          "indices": 5,
          "material": 1,
          "mode": 4
        },
        {
          "attributes": {
            "POSITION": 6,
            "NORMAL": 7
          },
          "indices": 8,
          "material": 2,
          "mode": 4
        }
      ]
    }
  ],
  "nodes": [
    {
      "name": "product-e67aebc3-0bcc-49d1-b719-e4b4dff208b3-body",
      "mesh": 0
    }
  ],
  "scene": 0,
  "scenes": [
    {
      "nodes": [
        0
      ]
    }
  ]
}
