{
  "accessors": [
    {
      "name": "product-e67aebc3-0bcc-49d1-b719-e4b4dff2093b-body_1_0_positions",
      "componentType": 5126,
      "count": 1424,
      "min": [
        1.566651463508606,
        2.845332384109497,
        0.8700000047683716
      ],
      "max": [
        1.7306514978408813,
        2.9978322982788086,
        0.9300000071525574
      ],
      "type": "VEC3",
      "bufferView": 0,
      "byteOffset": 0
    },
    {
      "name": "product-e67aebc3-0bcc-49d1-b719-e4b4dff2093b-body_1_0_normals",
      "componentType": 5126,
      "count": 1424,
      "min": [
        -1,
        -1,
        -0.9914448857307434
      ],
      "max": [
        1,
        0.9914448857307434,
        0.9914448857307434
      ],
      "type": "VEC3",
      "bufferView": 1,
      "byteOffset": 0
    },
    {
      "name": "product-e67aebc3-0bcc-49d1-b719-e4b4dff2093b-body_1_0_indices",
      "componentType": 5123,
      "count": 2064,
      "min": [
        0
      ],
      "max": [
        1423
      ],
      "type": "SCALAR",
      "bufferView": 2,
      "byteOffset": 0
    },
    {
      "name": "product-e67aebc3-0bcc-49d1-b719-e4b4dff2093b-body_1_1_positions",
      "componentType": 5126,
      "count": 24,
      "min": [
        1.6296515464782715,
        2.3143322467803955,
        0.00800000037997961
      ],
      "max": [
        1.6676515340805054,
        3.040332317352295,
        2.068000078201294
      ],
      "type": "VEC3",
      "bufferView": 0,
      "byteOffset": 17088
    },
    {
      "name": "product-e67aebc3-0bcc-49d1-b719-e4b4dff2093b-body_1_1_normals",
      "componentType": 5126,
      "count": 24,
      "min": [
        -1,
        -1,
        -1
      ],
      "max": [
        1,
        1,
        1
      ],
      "type": "VEC3",
      "bufferView": 1,
      "byteOffset": 17088
    },
    {
      "name": "product-e67aebc3-0bcc-49d1-b719-e4b4dff2093b-body_1_1_indices",
      "componentType": 5123,
      "count": 36,
      "min": [
        0
      ],
      "max": [
        23
      ],
      "type": "SCALAR",
      "bufferView": 2,
      "byteOffset": 4128
    },
    {
      "name": "product-e67aebc3-0bcc-49d1-b719-e4b4dff2093b-body_1_2_positions",
      "componentType": 5126,
      "count": 4236,
      "min": [
        1.5526515245437622,
        2.237332344055176,
        0
      ],
      "max": [
        1.687651515007019,
        3.1173322200775146,
        2.1449999809265137
      ],
      "type": "VEC3",
      "bufferView": 0,
      "byteOffset": 17376
    },
    {
      "name": "product-e67aebc3-0bcc-49d1-b719-e4b4dff2093b-body_1_2_normals",
      "componentType": 5126,
      "count": 4236,
      "min": [
        -1,
        -1,
        -1
      ],
      "max": [
        1,
        1,
        1
      ],
      "type": "VEC3",
      "bufferView": 1,
      "byteOffset": 17376
    },
    {
      "name": "product-e67aebc3-0bcc-49d1-b719-e4b4dff2093b-body_1_2_indices",
      "componentType": 5123,
      "count": 5640,
      "min": [
        0
      ],
      "max": [
        4235
      ],
      "type": "SCALAR",
      "bufferView": 2,
      "byteOffset": 4200
    },
    {
      "name": "product-e67aebc3-0bcc-49d1-b719-e4b4dff2093b-body_1_3_positions",
      "componentType": 5126,
      "count": 104,
      "min": [
        1.5726515054702759,
        2.280332326889038,
        0
      ],
      "max": [
        1.6676515340805054,
        3.0743322372436523,
        2.1019999980926514
      ],
      "type": "VEC3",
      "bufferView": 0,
      "byteOffset": 68208
    },
    {
      "name": "product-e67aebc3-0bcc-49d1-b719-e4b4dff2093b-body_1_3_normals",
      "componentType": 5126,
      "count": 104,
      "min": [
        -1,
        -1,
        -1
      ],
      "max": [
        1,
        1,
        1
      ],
      "type": "VEC3",
      "bufferView": 1,
      "byteOffset": 68208
    },
    {
      "name": "product-e67aebc3-0bcc-49d1-b719-e4b4dff2093b-body_1_3_indices",
      "componentType": 5123,
      "count": 168,
      "min": [
        0
      ],
      "max": [
        103
      ],
      "type": "SCALAR",
      "bufferView": 2,
      "byteOffset": 15480
    }
  ],
  "asset": {
    "generator": "obj2gltf",
    "version": "2.0"
  },
  "buffers": [
    {
      "name": "door2",
      "byteLength": 154728,
      "uri": "data:application/octet-stream;base64,"
    }
  ],
  "bufferViews": [
    {
      "name": "bufferView_0",
      "buffer": 0,
      "byteLength": 69456,
      "byteOffset": 0,
      "byteStride": 12,
      "target": 34962
    },
    {
      "name": "bufferView_1",
      "buffer": 0,
      "byteLength": 69456,
      "byteOffset": 69456,
      "byteStride": 12,
      "target": 34962
    },
    {
      "name": "bufferView_2",
      "buffer": 0,
      "byteLength": 15816,
      "byteOffset": 138912,
      "target": 34963
    }
  ],
  "extensionsUsed": [
    "KHR_materials_common"
  ],
  "extensionsRequired": [
    "KHR_materials_common"
  ],
  "materials": [
    {
      "name": "surface-style-4822-door---handle",
      "extensions": {
        "KHR_materials_common": {
          "technique": "PHONG",
          "transparent": false,
          "doubleSided": false,
          "values": {
            "ambient": [
              0,
              0,
              0,
              1
            ],
            "diffuse": [
              0,
              0,
              0,
              1
            ],
            "emission": [
              0,
              0,
              0,
              1
            ],
            "specular": [
              0.5,
              0.5,
              0.5,
              1
            ],
            "shininess": 64,
            "transparency": 1,
            "transparent": false,
            "doubleSided": false
          }
        }
      }
    },
    {
      "name": "surface-style-4690-door---panel",
      "extensions": {
        "KHR_materials_common": {
          "technique": "PHONG",
          "transparent": false,
          "doubleSided": false,
          "values": {
            "ambient": [
              0,
              0,
              0,
              1
            ],
            "diffuse": [
              0.823529411764706,
              0.623529411764706,
              0.372549019607843,
              1
            ],
            "emission": [
              0,
              0,
              0,
              1
            ],
            "specular": [
              0.5,
              0.5,
              0.5,
              1
            ],
            "shininess": 128,
            "transparency": 1,
            "transparent": false,
            "doubleSided": false
          }
        }
      }
    },
    {
      "name": "surface-style-2369-door---architrave",
      "extensions": {
        "KHR_materials_common": {
          "technique": "PHONG",
          "transparent": false,
          "doubleSided": false,
          "values": {
            "ambient": [
              0,
              0,
              0,
              1
            ],
            "diffuse": [
              0.603921568627451,
              0.352941176470588,
              0.0196078431372549,
              1
            ],
            "emission": [
              0,
              0,
              0,
              1
            ],
            "specular": [
              0.5,
              0.5,
              0.5,
              1
            ],
            "shininess": 64,
            "transparency": 1,
            "transparent": false,
            "doubleSided": false
          }
        }
      }
    },
    {
      "name": "surface-style-124-door---frame/mullion-(1)",
      "extensions": {
        "KHR_materials_common": {
          "technique": "PHONG",
          "transparent": false,
          "doubleSided": false,
          "values": {
            "ambient": [
              0,
              0,
              0,
              1
            ],
            "diffuse": [
              0.831372549019608,
              0.701960784313725,
              0.443137254901961,
              1
            ],
            "emission": [
              0,
              0,
              0,
              1
            ],
            "specular": [
              0.5,
              0.5,
              0.5,
              1
            ],
            "shininess": 128,
            "transparency": 1,
            "transparent": false,
            "doubleSided": false
          }
        }
      }
    }
  ],
  "meshes": [
    {
      "name": "product-e67aebc3-0bcc-49d1-b719-e4b4dff2093b-body_1",
      "primitives": [
        {
          "attributes": {
            "POSITION": 0,
            "NORMAL": 1
          },
          "indices": 2,
          "material": 0,
          "mode": 4
        },
        {
          "attributes": {
            "POSITION": 3,
            "NORMAL": 4
          },
          "indices": 5,
          "material": 1,
          "mode": 4
        },
        {
          "attributes": {
            "POSITION": 6,
            "NORMAL": 7
          },
          "indices": 8,
          "material": 2,
          "mode": 4
        },
        {
          "attributes": {
            "POSITION": 9,
            "NORMAL": 10
          },
          "indices": 11,
          "material": 3,
          "mode": 4
        }
      ]
    }
  ],
  "nodes": [
    {
      "name": "product-e67aebc3-0bcc-49d1-b719-e4b4dff2093b-body",
      "mesh": 0
    }
  ],
  "scene": 0,
  "scenes": [
    {
      "nodes": [
        0
      ]
    }
  ]
}
