{
  "accessors": [
    {
      "name": "product-e67aebc3-0bcc-49d1-b719-e4b4dff22433-body_1_0_positions",
      "componentType": 5126,
      "count": 3916,
      "min": [
        -5.6702961921691895,
        3.342125177383423,
        0
      ],
      "max": [
        -3.587496042251587,
        4.273182392120361,
        0.15007980167865753
      ],
      "type": "VEC3",
      "bufferView": 0,
      "byteOffset": 0
    },
    {
      "name": "product-e67aebc3-0bcc-49d1-b719-e4b4dff22433-body_1_0_normals",
      "componentType": 5126,
      "count": 3916,
      "min": [
        -0.9999995231628418,
        -0.7856462597846985,
        -1
      ],
      "max": [
        0.9999995827674866,
        0.8320254683494568,
        1
      ],
      "type": "VEC3",
      "bufferView": 1,
      "byteOffset": 0
    },
    {
      "name": "product-e67aebc3-0bcc-49d1-b719-e4b4dff22433-body_1_0_indices",
      "componentType": 5123,
      "count": 4608,
      "min": [
        0
      ],
      "max": [
        3915
      ],
      "type": "SCALAR",
      "bufferView": 2,
      "byteOffset": 0
    },
    {
      "name": "product-e67aebc3-0bcc-49d1-b719-e4b4dff22433-body_1_1_positions",
      "componentType": 5126,
      "count": 4418,
      "min": [
        -5.771229267120361,
        3.3577919006347656,
        0.10271422564983368
      ],
      "max": [
        -3.4843485355377197,
        4.319393634796143,
        0.9581487774848938
      ],
      "type": "VEC3",
      "bufferView": 0,
      "byteOffset": 46992
    },
    {
      "name": "product-e67aebc3-0bcc-49d1-b719-e4b4dff22433-body_1_1_normals",
      "componentType": 5126,
      "count": 4418,
      "min": [
        -1,
        -1,
        -1
      ],
      "max": [
        1,
        1,
        0.9993908405303955
      ],
      "type": "VEC3",
      "bufferView": 1,
      "byteOffset": 46992
    },
    {
      "name": "product-e67aebc3-0bcc-49d1-b719-e4b4dff22433-body_1_1_indices",
      "componentType": 5123,
      "count": 6990,
      "min": [
        0
      ],
      "max": [
        4417
      ],
      "type": "SCALAR",
      "bufferView": 2,
      "byteOffset": 9216
    }
  ],
  "asset": {
    "generator": "obj2gltf",
    "version": "2.0"
  },
  "buffers": [
    {
      "name": "furnishingElement8",
      "byteLength": 223212,
      "uri": "data:application/octet-stream;base64,"
    }
  ],
  "bufferViews": [
    {
      "name": "bufferView_0",
      "buffer": 0,
      "byteLength": 100008,
      "byteOffset": 0,
      "byteStride": 12,
      "target": 34962
    },
    {
      "name": "bufferView_1",
      "buffer": 0,
      "byteLength": 100008,
      "byteOffset": 100008,
      "byteStride": 12,
      "target": 34962
    },
    {
      "name": "bufferView_2",
      "buffer": 0,
      "byteLength": 23196,
      "byteOffset": 200016,
      "target": 34963
    }
  ],
  "extensionsUsed": [
    "KHR_materials_common"
  ],
  "extensionsRequired": [
    "KHR_materials_common"
  ],
  "materials": [
    {
      "name": "surface-style-1794-metal---chrome",
      "extensions": {
        "KHR_materials_common": {
          "technique": "PHONG",
          "transparent": false,
          "doubleSided": false,
          "values": {
            "ambient": [
              0,
              0,
              0,
              1
            ],
            "diffuse": [
              0.968627450980392,
              0.968627450980392,
              0.968627450980392,
              1
            ],
            "emission": [
              0,
              0,
              0,
              1
            ],
            "specular": [
              0.5,
              0.5,
              0.5,
              1
            ],
            "shininess": 128,
            "transparency": 1,
            "transparent": false,
            "doubleSided": false
          }
        }
      }
    },
    {
      "name": "surface-style-399-fabric---blue,-glossy",
      "extensions": {
        "KHR_materials_common": {
          "technique": "PHONG",
          "transparent": false,
          "doubleSided": false,
          "values": {
            "ambient": [
              0,
              0,
              0,
              1
            ],
            "diffuse": [
              0.282352941176471,
              0.533333333333333,
              0.737254901960784,
              1
            ],
            "emission": [
              0,
              0,
              0,
              1
            ],
            "specular": [
              0.5,
              0.5,
              0.5,
              1
            ],
            "shininess": 128,
            "transparency": 1,
            "transparent": false,
            "doubleSided": false
          }
        }
      }
    }
  ],
  "meshes": [
    {
      "name": "product-e67aebc3-0bcc-49d1-b719-e4b4dff22433-body_1",
      "primitives": [
        {
          "attributes": {
            "POSITION": 0,
            "NORMAL": 1
          },
          "indices": 2,
          "material": 0,
          "mode": 4
        },
        {
          "attributes": {
            "POSITION": 3,
            "NORMAL": 4
          },
          "indices": 5,
          "material": 1,
          "mode": 4
        }
      ]
    }
  ],
  "nodes": [
    {
      "name": "product-e67aebc3-0bcc-49d1-b719-e4b4dff22433-body",
      "mesh": 0
    }
  ],
  "scene": 0,
  "scenes": [
    {
      "nodes": [
        0
      ]
    }
  ]
}
