{
  "accessors": [
    {
      "name": "product-e67aebc3-0bcc-49d1-b719-e4b4dff237de-body_1_0_positions",
      "componentType": 5126,
      "count": 192,
      "min": [
        4.555151462554932,
        3.572932243347168,
        0.15199999511241913
      ],
      "max": [
        6.080151557922363,
        4.34763240814209,
        0.7239000201225281
      ],
      "type": "VEC3",
      "bufferView": 0,
      "byteOffset": 0
    },
    {
      "name": "product-e67aebc3-0bcc-49d1-b719-e4b4dff237de-body_1_0_normals",
      "componentType": 5126,
      "count": 192,
      "min": [
        -1,
        -1,
        -1
      ],
      "max": [
        1,
        1,
        1
      ],
      "type": "VEC3",
      "bufferView": 1,
      "byteOffset": 0
    },
    {
      "name": "product-e67aebc3-0bcc-49d1-b719-e4b4dff237de-body_1_0_indices",
      "componentType": 5123,
      "count": 300,
      "min": [
        0
      ],
      "max": [
        191
      ],
      "type": "SCALAR",
      "bufferView": 2,
      "byteOffset": 0
    },
    {
      "name": "product-e67aebc3-0bcc-49d1-b719-e4b4dff237de-body_1_1_positions",
      "componentType": 5126,
      "count": 432,
      "min": [
        4.555151462554932,
        3.547532320022583,
        0
      ],
      "max": [
        6.080151557922363,
        4.34763240814209,
        0.6667500138282776
      ],
      "type": "VEC3",
      "bufferView": 0,
      "byteOffset": 2304
    },
    {
      "name": "product-e67aebc3-0bcc-49d1-b719-e4b4dff237de-body_1_1_normals",
      "componentType": 5126,
      "count": 432,
      "min": [
        -1,
        -1,
        -1
      ],
      "max": [
        1,
        1,
        1
      ],
      "type": "VEC3",
      "bufferView": 1,
      "byteOffset": 2304
    },
    {
      "name": "product-e67aebc3-0bcc-49d1-b719-e4b4dff237de-body_1_1_indices",
      "componentType": 5123,
      "count": 648,
      "min": [
        0
      ],
      "max": [
        431
      ],
      "type": "SCALAR",
      "bufferView": 2,
      "byteOffset": 600
    },
    {
      "name": "product-e67aebc3-0bcc-49d1-b719-e4b4dff237de-body_1_2_positions",
      "componentType": 5126,
      "count": 24,
      "min": [
        4.536101341247559,
        3.566582441329956,
        0.7239000201225281
      ],
      "max": [
        6.099201679229736,
        4.366682529449463,
        0.7620000243186951
      ],
      "type": "VEC3",
      "bufferView": 0,
      "byteOffset": 7488
    },
    {
      "name": "product-e67aebc3-0bcc-49d1-b719-e4b4dff237de-body_1_2_normals",
      "componentType": 5126,
      "count": 24,
      "min": [
        -1,
        -1,
        -1
      ],
      "max": [
        1,
        1,
        1
      ],
      "type": "VEC3",
      "bufferView": 1,
      "byteOffset": 7488
    },
    {
      "name": "product-e67aebc3-0bcc-49d1-b719-e4b4dff237de-body_1_2_indices",
      "componentType": 5123,
      "count": 36,
      "min": [
        0
      ],
      "max": [
        23
      ],
      "type": "SCALAR",
      "bufferView": 2,
      "byteOffset": 1896
    }
  ],
  "asset": {
    "generator": "obj2gltf",
    "version": "2.0"
  },
  "buffers": [
    {
      "name": "furnishingElement0",
      "byteLength": 17520,
      "uri": "data:application/octet-stream;base64,"
    }
  ],
  "bufferViews": [
    {
      "name": "bufferView_0",
      "buffer": 0,
      "byteLength": 7776,
      "byteOffset": 0,
      "byteStride": 12,
      "target": 34962
    },
    {
      "name": "bufferView_1",
      "buffer": 0,
      "byteLength": 7776,
      "byteOffset": 7776,
      "byteStride": 12,
      "target": 34962
    },
    {
      "name": "bufferView_2",
      "buffer": 0,
      "byteLength": 1968,
      "byteOffset": 15552,
      "target": 34963
    }
  ],
  "extensionsUsed": [
    "KHR_materials_common"
  ],
  "extensionsRequired": [
    "KHR_materials_common"
  ],
  "materials": [
    {
      "name": "surface-style-476-laminate,-ivory,-matte",
      "extensions": {
        "KHR_materials_common": {
          "technique": "PHONG",
          "transparent": false,
          "doubleSided": false,
          "values": {
            "ambient": [
              0,
              0,
              0,
              1
            ],
            "diffuse": [
              0.968627450980392,
              0.968627450980392,
              0.937254901960784,
              1
            ],
            "emission": [
              0,
              0,
              0,
              1
            ],
            "specular": [
              0.5,
              0.5,
              0.5,
              1
            ],
            "shininess": 128,
            "transparency": 1,
            "transparent": false,
            "doubleSided": false
          }
        }
      }
    },
    {
      "name": "surface-style-124-steel,-chrome-plated",
      "extensions": {
        "KHR_materials_common": {
          "technique": "PHONG",
          "transparent": false,
          "doubleSided": false,
          "values": {
            "ambient": [
              0,
              0,
              0,
              1
            ],
            "diffuse": [
              0.847058823529412,
              0.847058823529412,
              0.847058823529412,
              1
            ],
            "emission": [
              0,
              0,
              0,
              1
            ],
            "specular": [
              0.5,
              0.5,
              0.5,
              1
            ],
            "shininess": 128,
            "transparency": 1,
            "transparent": false,
            "doubleSided": false
          }
        }
      }
    },
    {
      "name": "surface-style-508-cherry",
      "extensions": {
        "KHR_materials_common": {
          "technique": "PHONG",
          "transparent": false,
          "doubleSided": false,
          "values": {
            "ambient": [
              0,
              0,
              0,
              1
            ],
            "diffuse": [
              0.886274509803922,
              0.694117647058824,
              0.501960784313725,
              1
            ],
            "emission": [
              0,
              0,
              0,
              1
            ],
            "specular": [
              0.5,
              0.5,
              0.5,
              1
            ],
            "shininess": 128,
            "transparency": 1,
            "transparent": false,
            "doubleSided": false
          }
        }
      }
    }
  ],
  "meshes": [
    {
      "name": "product-e67aebc3-0bcc-49d1-b719-e4b4dff237de-body_1",
      "primitives": [
        {
          "attributes": {
            "POSITION": 0,
            "NORMAL": 1
          },
          "indices": 2,
          "material": 0,
          "mode": 4
        },
        {
          "attributes": {
            "POSITION": 3,
            "NORMAL": 4
          },
          "indices": 5,
          "material": 1,
          "mode": 4
        },
        {
          "attributes": {
            "POSITION": 6,
            "NORMAL": 7
          },
          "indices": 8,
          "material": 2,
          "mode": 4
        }
      ]
    }
  ],
  "nodes": [
    {
      "name": "product-e67aebc3-0bcc-49d1-b719-e4b4dff237de-body",
      "mesh": 0
    }
  ],
  "scene": 0,
  "scenes": [
    {
      "nodes": [
        0
      ]
    }
  ]
}
