{
  "accessors": [
    {
      "name": "product-e67aebc3-0bcc-49d1-b719-e4b4dff22ca1-body_1_0_positions",
      "componentType": 5126,
      "count": 120,
      "min": [
        -5.134848594665527,
        2.433582305908203,
        0
      ],
      "max": [
        -3.9348485469818115,
        2.9835822582244873,
        0.44999998807907104
      ],
      "type": "VEC3",
      "bufferView": 0,
      "byteOffset": 0
    },
    {
      "name": "product-e67aebc3-0bcc-49d1-b719-e4b4dff22ca1-body_1_0_normals",
      "componentType": 5126,
      "count": 120,
      "min": [
        -1,
        -1,
        -1
      ],
      "max": [
        1,
        1,
        1
      ],
      "type": "VEC3",
      "bufferView": 1,
      "byteOffset": 0
    },
    {
      "name": "product-e67aebc3-0bcc-49d1-b719-e4b4dff22ca1-body_1_0_indices",
      "componentType": 5123,
      "count": 180,
      "min": [
        0
      ],
      "max": [
        119
      ],
      "type": "SCALAR",
      "bufferView": 2,
      "byteOffset": 0
    }
  ],
  "asset": {
    "generator": "obj2gltf",
    "version": "2.0"
  },
  "buffers": [
    {
      "name": "furnishingElement11",
      "byteLength": 3240,
      "uri": "data:application/octet-stream;base64,"
    }
  ],
  "bufferViews": [
    {
      "name": "bufferView_0",
      "buffer": 0,
      "byteLength": 1440,
      "byteOffset": 0,
      "byteStride": 12,
      "target": 34962
    },
    {
      "name": "bufferView_1",
      "buffer": 0,
      "byteLength": 1440,
      "byteOffset": 1440,
      "byteStride": 12,
      "target": 34962
    },
    {
      "name": "bufferView_2",
      "buffer": 0,
      "byteLength": 360,
      "byteOffset": 2880,
      "target": 34963
    }
  ],
  "extensionsUsed": [
    "KHR_materials_common"
  ],
  "extensionsRequired": [
    "KHR_materials_common"
  ],
  "materials": [
    {
      "name": "surface-style-59-wood---birch",
      "extensions": {
        "KHR_materials_common": {
          "technique": "PHONG",
          "transparent": false,
          "doubleSided": false,
          "values": {
            "ambient": [
              0,
              0,
              0,
              1
            ],
            "diffuse": [
              0.835294117647059,
              0.643137254901961,
              0.403921568627451,
              1
            ],
            "emission": [
              0,
              0,
              0,
              1
            ],
            "specular": [
              0.5,
              0.5,
              0.5,
              1
            ],
            "shininess": 128,
            "transparency": 1,
            "transparent": false,
            "doubleSided": false
          }
        }
      }
    }
  ],
  "meshes": [
    {
      "name": "product-e67aebc3-0bcc-49d1-b719-e4b4dff22ca1-body_1",
      "primitives": [
        {
          "attributes": {
            "POSITION": 0,
            "NORMAL": 1
          },
          "indices": 2,
          "material": 0,
          "mode": 4
        }
      ]
    }
  ],
  "nodes": [
    {
      "name": "product-e67aebc3-0bcc-49d1-b719-e4b4dff22ca1-body",
      "mesh": 0
    }
  ],
  "scene": 0,
  "scenes": [
    {
      "nodes": [
        0
      ]
    }
  ]
}
