{
  "accessors": [
    {
      "name": "product-e67aebc3-0bcc-49d1-b719-e4b4dff23fff-body_1_0_positions",
      "componentType": 5126,
      "count": 372,
      "min": [
        -6.4090118408203125,
        -0.05876009911298752,
        0
      ],
      "max": [
        -4.4090118408203125,
        0.9412398934364319,
        0.75
      ],
      "type": "VEC3",
      "bufferView": 0,
      "byteOffset": 0
    },
    {
      "name": "product-e67aebc3-0bcc-49d1-b719-e4b4dff23fff-body_1_0_normals",
      "componentType": 5126,
      "count": 372,
      "min": [
        -1,
        -1,
        -1
      ],
      "max": [
        1,
        1,
        1
      ],
      "type": "VEC3",
      "bufferView": 1,
      "byteOffset": 0
    },
    {
      "name": "product-e67aebc3-0bcc-49d1-b719-e4b4dff23fff-body_1_0_indices",
      "componentType": 5123,
      "count": 600,
      "min": [
        0
      ],
      "max": [
        371
      ],
      "type": "SCALAR",
      "bufferView": 2,
      "byteOffset": 0
    }
  ],
  "asset": {
    "generator": "obj2gltf",
    "version": "2.0"
  },
  "buffers": [
    {
      "name": "furnishingElement1",
      "byteLength": 10128,
      "uri": "data:application/octet-stream;base64,"
    }
  ],
  "bufferViews": [
    {
      "name": "bufferView_0",
      "buffer": 0,
      "byteLength": 4464,
      "byteOffset": 0,
      "byteStride": 12,
      "target": 34962
    },
    {
      "name": "bufferView_1",
      "buffer": 0,
      "byteLength": 4464,
      "byteOffset": 4464,
      "byteStride": 12,
      "target": 34962
    },
    {
      "name": "bufferView_2",
      "buffer": 0,
      "byteLength": 1200,
      "byteOffset": 8928,
      "target": 34963
    }
  ],
  "extensionsUsed": [
    "KHR_materials_common"
  ],
  "extensionsRequired": [
    "KHR_materials_common"
  ],
  "materials": [
    {
      "name": "surface-style-167-wood---birch",
      "extensions": {
        "KHR_materials_common": {
          "technique": "PHONG",
          "transparent": false,
          "doubleSided": false,
          "values": {
            "ambient": [
              0,
              0,
              0,
              1
            ],
            "diffuse": [
              0.835294117647059,
              0.643137254901961,
              0.403921568627451,
              1
            ],
            "emission": [
              0,
              0,
              0,
              1
            ],
            "specular": [
              0.5,
              0.5,
              0.5,
              1
            ],
            "shininess": 128,
            "transparency": 1,
            "transparent": false,
            "doubleSided": false
          }
        }
      }
    }
  ],
  "meshes": [
    {
      "name": "product-e67aebc3-0bcc-49d1-b719-e4b4dff23fff-body_1",
      "primitives": [
        {
          "attributes": {
            "POSITION": 0,
            "NORMAL": 1
          },
          "indices": 2,
          "material": 0,
          "mode": 4
        }
      ]
    }
  ],
  "nodes": [
    {
      "name": "product-e67aebc3-0bcc-49d1-b719-e4b4dff23fff-body",
      "mesh": 0
    }
  ],
  "scene": 0,
  "scenes": [
    {
      "nodes": [
        0
      ]
    }
  ]
}
