{
  "accessors": [
    {
      "name": "product-e67aebc3-0bcc-49d1-b719-e4b4dff23ffc-body_1_0_positions",
      "componentType": 5126,
      "count": 522,
      "min": [
        -5.9690117835998535,
        -0.28124698996543884,
        -0.0007051020511426032
      ],
      "max": [
        -5.549011707305908,
        0.13818685710430145,
        1.2263073921203613
      ],
      "type": "VEC3",
      "bufferView": 0,
      "byteOffset": 0
    },
    {
      "name": "product-e67aebc3-0bcc-49d1-b719-e4b4dff23ffc-body_1_0_normals",
      "componentType": 5126,
      "count": 522,
      "min": [
        -1,
        -1,
        -1
      ],
      "max": [
        1,
        1,
        1
      ],
      "type": "VEC3",
      "bufferView": 1,
      "byteOffset": 0
    },
    {
      "name": "product-e67aebc3-0bcc-49d1-b719-e4b4dff23ffc-body_1_0_indices",
      "componentType": 5123,
      "count": 864,
      "min": [
        0
      ],
      "max": [
        521
      ],
      "type": "SCALAR",
      "bufferView": 2,
      "byteOffset": 0
    },
    {
      "name": "product-e67aebc3-0bcc-49d1-b719-e4b4dff23ffc-body_1_1_positions",
      "componentType": 5126,
      "count": 272,
      "min": [
        -5.98028039932251,
        -0.18128231167793274,
        0.42500001192092896
      ],
      "max": [
        -5.537743091583252,
        0.14568684995174408,
        0.45500001311302185
      ],
      "type": "VEC3",
      "bufferView": 0,
      "byteOffset": 6264
    },
    {
      "name": "product-e67aebc3-0bcc-49d1-b719-e4b4dff23ffc-body_1_1_normals",
      "componentType": 5126,
      "count": 272,
      "min": [
        -0.8885772228240967,
        -0.9834771752357483,
        -1
      ],
      "max": [
        0.8885772228240967,
        0.8944271802902222,
        1
      ],
      "type": "VEC3",
      "bufferView": 1,
      "byteOffset": 6264
    },
    {
      "name": "product-e67aebc3-0bcc-49d1-b719-e4b4dff23ffc-body_1_1_indices",
      "componentType": 5123,
      "count": 396,
      "min": [
        0
      ],
      "max": [
        271
      ],
      "type": "SCALAR",
      "bufferView": 2,
      "byteOffset": 1728
    }
  ],
  "asset": {
    "generator": "obj2gltf",
    "version": "2.0"
  },
  "buffers": [
    {
      "name": "furnishingElement6",
      "byteLength": 21576,
      "uri": "data:application/octet-stream;base64,"
    }
  ],
  "bufferViews": [
    {
      "name": "bufferView_0",
      "buffer": 0,
      "byteLength": 9528,
      "byteOffset": 0,
      "byteStride": 12,
      "target": 34962
    },
    {
      "name": "bufferView_1",
      "buffer": 0,
      "byteLength": 9528,
      "byteOffset": 9528,
      "byteStride": 12,
      "target": 34962
    },
    {
      "name": "bufferView_2",
      "buffer": 0,
      "byteLength": 2520,
      "byteOffset": 19056,
      "target": 34963
    }
  ],
  "extensionsUsed": [
    "KHR_materials_common"
  ],
  "extensionsRequired": [
    "KHR_materials_common"
  ],
  "materials": [
    {
      "name": "surface-style-137-wood---birch",
      "extensions": {
        "KHR_materials_common": {
          "technique": "PHONG",
          "transparent": false,
          "doubleSided": false,
          "values": {
            "ambient": [
              0,
              0,
              0,
              1
            ],
            "diffuse": [
              0.835294117647059,
              0.643137254901961,
              0.403921568627451,
              1
            ],
            "emission": [
              0,
              0,
              0,
              1
            ],
            "specular": [
              0.5,
              0.5,
              0.5,
              1
            ],
            "shininess": 128,
            "transparency": 1,
            "transparent": false,
            "doubleSided": false
          }
        }
      }
    },
    {
      "name": "surface-style-711-fabric---beige",
      "extensions": {
        "KHR_materials_common": {
          "technique": "PHONG",
          "transparent": false,
          "doubleSided": false,
          "values": {
            "ambient": [
              0,
              0,
              0,
              1
            ],
            "diffuse": [
              0.905882352941176,
              0.890196078431373,
              0.764705882352941,
              1
            ],
            "emission": [
              0,
              0,
              0,
              1
            ],
            "specular": [
              0.5,
              0.5,
              0.5,
              1
            ],
            "shininess": 128,
            "transparency": 1,
            "transparent": false,
            "doubleSided": false
          }
        }
      }
    }
  ],
  "meshes": [
    {
      "name": "product-e67aebc3-0bcc-49d1-b719-e4b4dff23ffc-body_1",
      "primitives": [
        {
          "attributes": {
            "POSITION": 0,
            "NORMAL": 1
          },
          "indices": 2,
          "material": 0,
          "mode": 4
        },
        {
          "attributes": {
            "POSITION": 3,
            "NORMAL": 4
          },
          "indices": 5,
          "material": 1,
          "mode": 4
        }
      ]
    }
  ],
  "nodes": [
    {
      "name": "product-e67aebc3-0bcc-49d1-b719-e4b4dff23ffc-body",
      "mesh": 0
    }
  ],
  "scene": 0,
  "scenes": [
    {
      "nodes": [
        0
      ]
    }
  ]
}
