{
  "accessors": [
    {
      "name": "product-5b7050d5-53fb-4651-8bca-43aeddb2220d-body_1_0_positions",
      "componentType": 5126,
      "count": 1712,
      "min": [
        4.138551712036133,
        0.9714823365211487,
        0.20319999754428864
      ],
      "max": [
        6.094751358032227,
        2.720682382583618,
        0.48260000348091125
      ],
      "type": "VEC3",
      "bufferView": 0,
      "byteOffset": 0
    },
    {
      "name": "product-5b7050d5-53fb-4651-8bca-43aeddb2220d-body_1_0_normals",
      "componentType": 5126,
      "count": 1712,
      "min": [
        -1,
        -1,
        -1
      ],
      "max": [
        1,
        1,
        1
      ],
      "type": "VEC3",
      "bufferView": 1,
      "byteOffset": 0
    },
    {
      "name": "product-5b7050d5-53fb-4651-8bca-43aeddb2220d-body_1_0_indices",
      "componentType": 5123,
      "count": 2220,
      "min": [
        0
      ],
      "max": [
        1711
      ],
      "type": "SCALAR",
      "bufferView": 2,
      "byteOffset": 0
    },
    {
      "name": "product-5b7050d5-53fb-4651-8bca-43aeddb2220d-body_1_1_positions",
      "componentType": 5126,
      "count": 820,
      "min": [
        4.113151550292969,
        0.946082353591919,
        0
      ],
      "max": [
        6.120151519775391,
        2.746082305908203,
        0.3555999994277954
      ],
      "type": "VEC3",
      "bufferView": 0,
      "byteOffset": 20544
    },
    {
      "name": "product-5b7050d5-53fb-4651-8bca-43aeddb2220d-body_1_1_normals",
      "componentType": 5126,
      "count": 820,
      "min": [
        -1,
        -1,
        -1
      ],
      "max": [
        1,
        1,
        1
      ],
      "type": "VEC3",
      "bufferView": 1,
      "byteOffset": 20544
    },
    {
      "name": "product-5b7050d5-53fb-4651-8bca-43aeddb2220d-body_1_1_indices",
      "componentType": 5123,
      "count": 1524,
      "min": [
        0
      ],
      "max": [
        819
      ],
      "type": "SCALAR",
      "bufferView": 2,
      "byteOffset": 4440
    }
  ],
  "asset": {
    "generator": "obj2gltf",
    "version": "2.0"
  },
  "buffers": [
    {
      "name": "furnishingElement13",
      "byteLength": 68256,
      "uri": "data:application/octet-stream;base64,"
    }
  ],
  "bufferViews": [
    {
      "name": "bufferView_0",
      "buffer": 0,
      "byteLength": 30384,
      "byteOffset": 0,
      "byteStride": 12,
      "target": 34962
    },
    {
      "name": "bufferView_1",
      "buffer": 0,
      "byteLength": 30384,
      "byteOffset": 30384,
      "byteStride": 12,
      "target": 34962
    },
    {
      "name": "bufferView_2",
      "buffer": 0,
      "byteLength": 7488,
      "byteOffset": 60768,
      "target": 34963
    }
  ],
  "extensionsUsed": [
    "KHR_materials_common"
  ],
  "extensionsRequired": [
    "KHR_materials_common"
  ],
  "materials": [
    {
      "name": "surface-style-618-textile---white",
      "extensions": {
        "KHR_materials_common": {
          "technique": "PHONG",
          "transparent": false,
          "doubleSided": false,
          "values": {
            "ambient": [
              0,
              0,
              0,
              1
            ],
            "diffuse": [
              0.968627450980392,
              0.968627450980392,
              0.937254901960784,
              1
            ],
            "emission": [
              0,
              0,
              0,
              1
            ],
            "specular": [
              0.5,
              0.5,
              0.5,
              1
            ],
            "shininess": 128,
            "transparency": 1,
            "transparent": false,
            "doubleSided": false
          }
        }
      }
    },
    {
      "name": "surface-style-144-wood---birch",
      "extensions": {
        "KHR_materials_common": {
          "technique": "PHONG",
          "transparent": false,
          "doubleSided": false,
          "values": {
            "ambient": [
              0,
              0,
              0,
              1
            ],
            "diffuse": [
              0.835294117647059,
              0.643137254901961,
              0.403921568627451,
              1
            ],
            "emission": [
              0,
              0,
              0,
              1
            ],
            "specular": [
              0.5,
              0.5,
              0.5,
              1
            ],
            "shininess": 128,
            "transparency": 1,
            "transparent": false,
            "doubleSided": false
          }
        }
      }
    }
  ],
  "meshes": [
    {
      "name": "product-5b7050d5-53fb-4651-8bca-43aeddb2220d-body_1",
      "primitives": [
        {
          "attributes": {
            "POSITION": 0,
            "NORMAL": 1
          },
          "indices": 2,
          "material": 0,
          "mode": 4
        },
        {
          "attributes": {
            "POSITION": 3,
            "NORMAL": 4
          },
          "indices": 5,
          "material": 1,
          "mode": 4
        }
      ]
    }
  ],
  "nodes": [
    {
      "name": "product-5b7050d5-53fb-4651-8bca-43aeddb2220d-body",
      "mesh": 0
    }
  ],
  "scene": 0,
  "scenes": [
    {
      "nodes": [
        0
      ]
    }
  ]
}
