{
  "accessors": [
    {
      "name": "product-e67aebc3-0bcc-49d1-b719-e4b4dff22108-body_1_0_positions",
      "componentType": 5126,
      "count": 3916,
      "min": [
        -3.0617287158966064,
        2.6662521362304688,
        0
      ],
      "max": [
        -1.7723026275634766,
        3.947293519973755,
        0.15007980167865753
      ],
      "type": "VEC3",
      "bufferView": 0,
      "byteOffset": 0
    },
    {
      "name": "product-e67aebc3-0bcc-49d1-b719-e4b4dff22108-body_1_0_normals",
      "componentType": 5126,
      "count": 3916,
      "min": [
        -0.9737138748168945,
        -0.8914073705673218,
        -1
      ],
      "max": [
        0.9737138748168945,
        0.8914073705673218,
        1
      ],
      "type": "VEC3",
      "bufferView": 1,
      "byteOffset": 0
    },
    {
      "name": "product-e67aebc3-0bcc-49d1-b719-e4b4dff22108-body_1_0_indices",
      "componentType": 5123,
      "count": 4608,
      "min": [
        0
      ],
      "max": [
        3915
      ],
      "type": "SCALAR",
      "bufferView": 2,
      "byteOffset": 0
    },
    {
      "name": "product-e67aebc3-0bcc-49d1-b719-e4b4dff22108-body_1_1_positions",
      "componentType": 5126,
      "count": 3852,
      "min": [
        -3.1249849796295166,
        2.6284995079040527,
        0.10271422564983368
      ],
      "max": [
        -1.7012795209884644,
        4.017632961273193,
        0.9182625412940979
      ],
      "type": "VEC3",
      "bufferView": 0,
      "byteOffset": 46992
    },
    {
      "name": "product-e67aebc3-0bcc-49d1-b719-e4b4dff22108-body_1_1_normals",
      "componentType": 5126,
      "count": 3852,
      "min": [
        -0.9969955682754517,
        -0.996302604675293,
        -1
      ],
      "max": [
        0.911152720451355,
        0.8191520571708679,
        0.9993908405303955
      ],
      "type": "VEC3",
      "bufferView": 1,
      "byteOffset": 46992
    },
    {
      "name": "product-e67aebc3-0bcc-49d1-b719-e4b4dff22108-body_1_1_indices",
      "componentType": 5123,
      "count": 6246,
      "min": [
        0
      ],
      "max": [
        3851
      ],
      "type": "SCALAR",
      "bufferView": 2,
      "byteOffset": 9216
    }
  ],
  "asset": {
    "generator": "obj2gltf",
    "version": "2.0"
  },
  "buffers": [
    {
      "name": "furnishingElement9",
      "byteLength": 208140,
      "uri": "data:application/octet-stream;base64,"
    }
  ],
  "bufferViews": [
    {
      "name": "bufferView_0",
      "buffer": 0,
      "byteLength": 93216,
      "byteOffset": 0,
      "byteStride": 12,
      "target": 34962
    },
    {
      "name": "bufferView_1",
      "buffer": 0,
      "byteLength": 93216,
      "byteOffset": 93216,
      "byteStride": 12,
      "target": 34962
    },
    {
      "name": "bufferView_2",
      "buffer": 0,
      "byteLength": 21708,
      "byteOffset": 186432,
      "target": 34963
    }
  ],
  "extensionsUsed": [
    "KHR_materials_common"
  ],
  "extensionsRequired": [
    "KHR_materials_common"
  ],
  "materials": [
    {
      "name": "surface-style-1634-metal---chrome",
      "extensions": {
        "KHR_materials_common": {
          "technique": "PHONG",
          "transparent": false,
          "doubleSided": false,
          "values": {
            "ambient": [
              0,
              0,
              0,
              1
            ],
            "diffuse": [
              0.968627450980392,
              0.968627450980392,
              0.968627450980392,
              1
            ],
            "emission": [
              0,
              0,
              0,
              1
            ],
            "specular": [
              0.5,
              0.5,
              0.5,
              1
            ],
            "shininess": 128,
            "transparency": 1,
            "transparent": false,
            "doubleSided": false
          }
        }
      }
    },
    {
      "name": "surface-style-239-fabric---blue,-glossy",
      "extensions": {
        "KHR_materials_common": {
          "technique": "PHONG",
          "transparent": false,
          "doubleSided": false,
          "values": {
            "ambient": [
              0,
              0,
              0,
              1
            ],
            "diffuse": [
              0.282352941176471,
              0.533333333333333,
              0.737254901960784,
              1
            ],
            "emission": [
              0,
              0,
              0,
              1
            ],
            "specular": [
              0.5,
              0.5,
              0.5,
              1
            ],
            "shininess": 128,
            "transparency": 1,
            "transparent": false,
            "doubleSided": false
          }
        }
      }
    }
  ],
  "meshes": [
    {
      "name": "product-e67aebc3-0bcc-49d1-b719-e4b4dff22108-body_1",
      "primitives": [
        {
          "attributes": {
            "POSITION": 0,
            "NORMAL": 1
          },
          "indices": 2,
          "material": 0,
          "mode": 4
        },
        {
          "attributes": {
            "POSITION": 3,
            "NORMAL": 4
          },
          "indices": 5,
          "material": 1,
          "mode": 4
        }
      ]
    }
  ],
  "nodes": [
    {
      "name": "product-e67aebc3-0bcc-49d1-b719-e4b4dff22108-body",
      "mesh": 0
    }
  ],
  "scene": 0,
  "scenes": [
    {
      "nodes": [
        0
      ]
    }
  ]
}
