{
  "accessors": [
    {
      "name": "product-e67aebc3-0bcc-49d1-b719-e4b4dff20e85-body_1_0_positions",
      "componentType": 5126,
      "count": 322,
      "min": [
        -7.734848499298096,
        4.4085822105407715,
        0
      ],
      "max": [
        6.410151481628418,
        4.698582172393799,
        2.4737026691436768
      ],
      "type": "VEC3",
      "bufferView": 0,
      "byteOffset": 0
    },
    {
      "name": "product-e67aebc3-0bcc-49d1-b719-e4b4dff20e85-body_1_0_normals",
      "componentType": 5126,
      "count": 322,
      "min": [
        -1,
        -1,
        -1
      ],
      "max": [
        1,
        1,
        1
      ],
      "type": "VEC3",
      "bufferView": 1,
      "byteOffset": 0
    },
    {
      "name": "product-e67aebc3-0bcc-49d1-b719-e4b4dff20e85-body_1_0_indices",
      "componentType": 5123,
      "count": 432,
      "min": [
        0
      ],
      "max": [
        321
      ],
      "type": "SCALAR",
      "bufferView": 2,
      "byteOffset": 0
    }
  ],
  "asset": {
    "generator": "obj2gltf",
    "version": "2.0"
  },
  "buffers": [
    {
      "name": "wall0",
      "byteLength": 8592,
      "uri": "data:application/octet-stream;base64,"
    }
  ],
  "bufferViews": [
    {
      "name": "bufferView_0",
      "buffer": 0,
      "byteLength": 3864,
      "byteOffset": 0,
      "byteStride": 12,
      "target": 34962
    },
    {
      "name": "bufferView_1",
      "buffer": 0,
      "byteLength": 3864,
      "byteOffset": 3864,
      "byteStride": 12,
      "target": 34962
    },
    {
      "name": "bufferView_2",
      "buffer": 0,
      "byteLength": 864,
      "byteOffset": 7728,
      "target": 34963
    }
  ],
  "extensionsUsed": [
    "KHR_materials_common"
  ],
  "extensionsRequired": [
    "KHR_materials_common"
  ],
  "materials": [
    {
      "name": "surface-style-403-brick,-common",
      "extensions": {
        "KHR_materials_common": {
          "technique": "PHONG",
          "transparent": false,
          "doubleSided": false,
          "values": {
            "ambient": [
              0,
              0,
              0,
              1
            ],
            "diffuse": [
              0.666666666666667,
              0.392156862745098,
              0.411764705882353,
              1
            ],
            "emission": [
              0,
              0,
              0,
              1
            ],
            "specular": [
              0.5,
              0.5,
              0.5,
              1
            ],
            "shininess": 128,
            "transparency": 1,
            "transparent": false,
            "doubleSided": false
          }
        }
      }
    }
  ],
  "meshes": [
    {
      "name": "product-e67aebc3-0bcc-49d1-b719-e4b4dff20e85-body_1",
      "primitives": [
        {
          "attributes": {
            "POSITION": 0,
            "NORMAL": 1
          },
          "indices": 2,
          "material": 0,
          "mode": 4
        }
      ]
    }
  ],
  "nodes": [
    {
      "name": "product-e67aebc3-0bcc-49d1-b719-e4b4dff20e85-body",
      "mesh": 0
    }
  ],
  "scene": 0,
  "scenes": [
    {
      "nodes": [
        0
      ]
    }
  ]
}
