{
  "accessors": [
    {
      "name": "product-e67aebc3-0bcc-49d1-b719-e4b4dff209fb-body_1_0_positions",
      "componentType": 5126,
      "count": 312,
      "min": [
        -2.162348508834839,
        4.38358211517334,
        0.8999999761581421
      ],
      "max": [
        -0.3023484945297241,
        4.736082553863525,
        2.109999895095825
      ],
      "type": "VEC3",
      "bufferView": 0,
      "byteOffset": 0
    },
    {
      "name": "product-e67aebc3-0bcc-49d1-b719-e4b4dff209fb-body_1_0_normals",
      "componentType": 5126,
      "count": 312,
      "min": [
        -1,
        -1,
        -1
      ],
      "max": [
        1,
        1,
        1
      ],
      "type": "VEC3",
      "bufferView": 1,
      "byteOffset": 0
    },
    {
      "name": "product-e67aebc3-0bcc-49d1-b719-e4b4dff209fb-body_1_0_indices",
      "componentType": 5123,
      "count": 588,
      "min": [
        0
      ],
      "max": [
        311
      ],
      "type": "SCALAR",
      "bufferView": 2,
      "byteOffset": 0
    },
    {
      "name": "product-e67aebc3-0bcc-49d1-b719-e4b4dff209fb-body_1_1_positions",
      "componentType": 5126,
      "count": 24,
      "min": [
        -2.0673484802246094,
        4.612582206726074,
        0.9929999709129333
      ],
      "max": [
        -0.3973484933376312,
        4.636582374572754,
        2.0399999618530273
      ],
      "type": "VEC3",
      "bufferView": 0,
      "byteOffset": 3744
    },
    {
      "name": "product-e67aebc3-0bcc-49d1-b719-e4b4dff209fb-body_1_1_normals",
      "componentType": 5126,
      "count": 24,
      "min": [
        -1,
        -1,
        -1
      ],
      "max": [
        1,
        1,
        1
      ],
      "type": "VEC3",
      "bufferView": 1,
      "byteOffset": 3744
    },
    {
      "name": "product-e67aebc3-0bcc-49d1-b719-e4b4dff209fb-body_1_1_indices",
      "componentType": 5123,
      "count": 36,
      "min": [
        0
      ],
      "max": [
        23
      ],
      "type": "SCALAR",
      "bufferView": 2,
      "byteOffset": 1176
    }
  ],
  "asset": {
    "generator": "obj2gltf",
    "version": "2.0"
  },
  "buffers": [
    {
      "name": "window2",
      "byteLength": 9312,
      "uri": "data:application/octet-stream;base64,"
    }
  ],
  "bufferViews": [
    {
      "name": "bufferView_0",
      "buffer": 0,
      "byteLength": 4032,
      "byteOffset": 0,
      "byteStride": 12,
      "target": 34962
    },
    {
      "name": "bufferView_1",
      "buffer": 0,
      "byteLength": 4032,
      "byteOffset": 4032,
      "byteStride": 12,
      "target": 34962
    },
    {
      "name": "bufferView_2",
      "buffer": 0,
      "byteLength": 1248,
      "byteOffset": 8064,
      "target": 34963
    }
  ],
  "extensionsUsed": [
    "KHR_materials_common"
  ],
  "extensionsRequired": [
    "KHR_materials_common"
  ],
  "materials": [
    {
      "name": "surface-style-281-window-frame",
      "extensions": {
        "KHR_materials_common": {
          "technique": "PHONG",
          "transparent": false,
          "doubleSided": false,
          "values": {
            "ambient": [
              0,
              0,
              0,
              1
            ],
            "diffuse": [
              0.976470588235294,
              0.976470588235294,
              0.976470588235294,
              1
            ],
            "emission": [
              0,
              0,
              0,
              1
            ],
            "specular": [
              0.5,
              0.5,
              0.5,
              1
            ],
            "shininess": 128,
            "transparency": 1,
            "transparent": false,
            "doubleSided": false
          }
        }
      }
    },
    {
      "name": "surface-style-313-glass",
      "extensions": {
        "KHR_materials_common": {
          "technique": "PHONG",
          "transparent": true,
          "doubleSided": true,
          "values": {
            "ambient": [
              0,
              0,
              0,
              1
            ],
            "diffuse": [
              0,
              0.501960784313725,
              0.752941176470588,
              0.1
            ],
            "emission": [
              0,
              0,
              0,
              1
            ],
            "specular": [
              0.5,
              0.5,
              0.5,
              1
            ],
            "shininess": 12,
            "transparency": 1,
            "transparent": true,
            "doubleSided": true
          }
        }
      }
    }
  ],
  "meshes": [
    {
      "name": "product-e67aebc3-0bcc-49d1-b719-e4b4dff209fb-body_1",
      "primitives": [
        {
          "attributes": {
            "POSITION": 0,
            "NORMAL": 1
          },
          "indices": 2,
          "material": 0,
          "mode": 4
        },
        {
          "attributes": {
            "POSITION": 3,
            "NORMAL": 4
          },
          "indices": 5,
          "material": 1,
          "mode": 4
        }
      ]
    }
  ],
  "nodes": [
    {
      "name": "product-e67aebc3-0bcc-49d1-b719-e4b4dff209fb-body",
      "mesh": 0
    }
  ],
  "scene": 0,
  "scenes": [
    {
      "nodes": [
        0
      ]
    }
  ]
}
